<?xml version="1.0" encoding="UTF-8"?>
<svg id="Layer_1" data-name="Layer 1" xmlns="http://www.w3.org/2000/svg" viewBox="0 0 1275.72 716.99">
  <defs>
    <style>
      .cls-1 {
        fill: #040404;
      }

      .cls-1, .cls-2 {
        stroke-width: 0px;
      }

      .cls-3 {
        opacity: .2;
      }

      .cls-4 {
        fill: none;
        stroke: #1d1d1b;
        stroke-width: 1.5px;
      }

      .cls-4, .cls-5, .cls-6 {
        stroke-miterlimit: 10;
      }

      .cls-5 {
        stroke: #bc2026;
        stroke-width: .25px;
      }

      .cls-5, .cls-6 {
        opacity: .5;
      }

      .cls-5, .cls-2 {
        fill: #1d1d1b;
      }

      .cls-6 {
        fill: #098d45;
        stroke: #fff;
        stroke-width: 2px;
      }
    </style>
  </defs>
  <g class="cls-3">
    <g>
      <rect class="cls-5" x=".46" y="71.25" width="1273.63" height="5.36"/>
      <rect class="cls-5" x=".46" y="80.65" width="1273.63" height="15.63"/>
      <rect class="cls-5" x=".46" y="101.35" width="1273.63" height="5.36"/>
    </g>
    <g>
      <rect class="cls-5" x="96.5" y=".12" width="6.8" height="715.76"/>
      <rect class="cls-5" x="108.43" y=".12" width="19.83" height="715.76"/>
      <rect class="cls-5" x="134.7" y=".12" width="6.8" height="715.76"/>
    </g>
    <g>
      <rect class="cls-5" x="1140.97" y="1.11" width="6.8" height="715.76"/>
      <rect class="cls-5" x="1152.9" y="1.11" width="19.83" height="715.76"/>
      <rect class="cls-5" x="1179.17" y="1.11" width="6.8" height="715.76"/>
    </g>
    <g>
      <rect class="cls-5" x=".46" y="611.94" width="1273.63" height="5.36"/>
      <rect class="cls-5" x=".46" y="621.34" width="1273.63" height="15.63"/>
      <rect class="cls-5" x=".46" y="642.04" width="1273.63" height="5.36"/>
    </g>
    <g>
      <g>
        <path class="cls-1" d="M58.61,581.07s23.17,3.06,24.38,18.8c0,0-2.72,12.68,15.89,12.76,0,0-24.39-2.23-27-13.34,0,0,7.1-10.01-13.26-18.22Z"/>
        <path class="cls-1" d="M58.61,581.07s23.17-3.06,24.38-18.8c0,0-2.72-12.68,15.89-12.76,0,0-24.39,2.23-27,13.34,0,0,7.1,10.01-13.26,18.22Z"/>
      </g>
      <g>
        <path class="cls-1" d="M31.22,581.07s23.17,3.06,24.38,18.8c0,0-2.72,12.68,15.89,12.76,0,0-24.39-2.23-27.01-13.34,0,0,7.1-10.01-13.25-18.22Z"/>
        <path class="cls-1" d="M31.22,581.07s23.17-3.06,24.38-18.8c0,0-2.72-12.68,15.89-12.76,0,0-24.39,2.23-27.01,13.34,0,0,7.1,10.01-13.25,18.22Z"/>
      </g>
      <g>
        <path class="cls-1" d="M3.83,581.07s23.17,3.06,24.38,18.8c0,0-2.72,12.68,15.88,12.76,0,0-24.39-2.23-27-13.34,0,0,7.1-10.01-13.26-18.22Z"/>
        <path class="cls-1" d="M3.83,581.07s23.17-3.06,24.38-18.8c0,0-2.72-12.68,15.88-12.76,0,0-24.39,2.23-27,13.34,0,0,7.1,10.01-13.26,18.22Z"/>
      </g>
    </g>
    <g>
      <g>
        <path class="cls-1" d="M58.61,518.02s23.17,3.06,24.38,18.8c0,0-2.72,12.68,15.89,12.76,0,0-24.39-2.23-27-13.34,0,0,7.1-10.01-13.26-18.22Z"/>
        <path class="cls-1" d="M58.61,518.02s23.17-3.06,24.38-18.8c0,0-2.72-12.68,15.89-12.76,0,0-24.39,2.23-27,13.34,0,0,7.1,10.01-13.26,18.22Z"/>
      </g>
      <g>
        <path class="cls-1" d="M31.22,518.02s23.17,3.06,24.38,18.8c0,0-2.72,12.68,15.89,12.76,0,0-24.39-2.23-27.01-13.34,0,0,7.1-10.01-13.25-18.22Z"/>
        <path class="cls-1" d="M31.22,518.02s23.17-3.06,24.38-18.8c0,0-2.72-12.68,15.89-12.76,0,0-24.39,2.23-27.01,13.34,0,0,7.1,10.01-13.25,18.22Z"/>
      </g>
      <g>
        <path class="cls-1" d="M3.83,518.02s23.17,3.06,24.38,18.8c0,0-2.72,12.68,15.88,12.76,0,0-24.39-2.23-27-13.34,0,0,7.1-10.01-13.26-18.22Z"/>
        <path class="cls-1" d="M3.83,518.02s23.17-3.06,24.38-18.8c0,0-2.72-12.68,15.88-12.76,0,0-24.39,2.23-27,13.34,0,0,7.1,10.01-13.26,18.22Z"/>
      </g>
    </g>
    <g>
      <g>
        <path class="cls-1" d="M58.61,454.56s23.17,3.06,24.38,18.8c0,0-2.72,12.68,15.89,12.76,0,0-24.39-2.23-27-13.34,0,0,7.1-10.01-13.26-18.22Z"/>
        <path class="cls-1" d="M58.61,454.55s23.17-3.06,24.38-18.8c0,0-2.72-12.68,15.89-12.76,0,0-24.39,2.23-27,13.34,0,0,7.1,10.01-13.26,18.22Z"/>
      </g>
      <g>
        <path class="cls-1" d="M31.22,454.56s23.17,3.06,24.38,18.8c0,0-2.72,12.68,15.89,12.76,0,0-24.39-2.23-27.01-13.34,0,0,7.1-10.01-13.25-18.22Z"/>
        <path class="cls-1" d="M31.22,454.55s23.17-3.06,24.38-18.8c0,0-2.72-12.68,15.89-12.76,0,0-24.39,2.23-27.01,13.34,0,0,7.1,10.01-13.25,18.22Z"/>
      </g>
      <g>
        <path class="cls-1" d="M3.83,454.56s23.17,3.06,24.38,18.8c0,0-2.72,12.68,15.88,12.76,0,0-24.39-2.23-27-13.34,0,0,7.1-10.01-13.26-18.22Z"/>
        <path class="cls-1" d="M3.83,454.55s23.17-3.06,24.38-18.8c0,0-2.72-12.68,15.88-12.76,0,0-24.39,2.23-27,13.34,0,0,7.1,10.01-13.26,18.22Z"/>
      </g>
    </g>
    <g>
      <g>
        <path class="cls-1" d="M58.62,391.75s23.17,3.06,24.37,18.8c0,0-2.72,12.68,15.89,12.76,0,0-24.39-2.23-27-13.34,0,0,7.1-10.01-13.25-18.22Z"/>
        <path class="cls-1" d="M58.62,391.75s23.17-3.06,24.37-18.8c0,0-2.72-12.68,15.89-12.76,0,0-24.39,2.23-27,13.34,0,0,7.1,10.01-13.25,18.22Z"/>
      </g>
      <g>
        <path class="cls-1" d="M31.23,391.75s23.17,3.06,24.38,18.8c0,0-2.72,12.68,15.89,12.76,0,0-24.39-2.23-27.01-13.34,0,0,7.1-10.01-13.26-18.22Z"/>
        <path class="cls-1" d="M31.23,391.75s23.17-3.06,24.38-18.8c0,0-2.72-12.68,15.89-12.76,0,0-24.39,2.23-27.01,13.34,0,0,7.1,10.01-13.26,18.22Z"/>
      </g>
      <g>
        <path class="cls-1" d="M3.83,391.75s23.17,3.06,24.38,18.8c0,0-2.72,12.68,15.89,12.76,0,0-24.39-2.23-27.01-13.34,0,0,7.1-10.01-13.26-18.22Z"/>
        <path class="cls-1" d="M3.83,391.75s23.17-3.06,24.38-18.8c0,0-2.72-12.68,15.89-12.76,0,0-24.39,2.23-27.01,13.34,0,0,7.1,10.01-13.26,18.22Z"/>
      </g>
    </g>
    <g>
      <g>
        <path class="cls-1" d="M58.61,138.28s23.17,3.06,24.38,18.8c0,0-2.72,12.68,15.89,12.76,0,0-24.39-2.23-27-13.34,0,0,7.1-10.01-13.26-18.22Z"/>
        <path class="cls-1" d="M58.61,138.28s23.17-3.06,24.38-18.8c0,0-2.72-12.68,15.89-12.76,0,0-24.39,2.23-27,13.34,0,0,7.1,10.01-13.26,18.22Z"/>
      </g>
      <g>
        <path class="cls-1" d="M31.22,138.28s23.17,3.06,24.38,18.8c0,0-2.72,12.68,15.89,12.76,0,0-24.39-2.23-27.01-13.34,0,0,7.1-10.01-13.25-18.22Z"/>
        <path class="cls-1" d="M31.22,138.28s23.17-3.06,24.38-18.8c0,0-2.72-12.68,15.89-12.76,0,0-24.39,2.23-27.01,13.34,0,0,7.1,10.01-13.25,18.22Z"/>
      </g>
      <g>
        <path class="cls-1" d="M3.83,138.28s23.17,3.06,24.38,18.8c0,0-2.72,12.68,15.88,12.76,0,0-24.39-2.23-27-13.34,0,0,7.1-10.01-13.26-18.22Z"/>
        <path class="cls-1" d="M3.83,138.28s23.17-3.06,24.38-18.8c0,0-2.72-12.68,15.88-12.76,0,0-24.39,2.23-27,13.34,0,0,7.1,10.01-13.26,18.22Z"/>
      </g>
    </g>
    <g>
      <g>
        <path class="cls-1" d="M58.61,201.41s23.17,3.06,24.38,18.8c0,0-2.72,12.68,15.89,12.76,0,0-24.39-2.23-27-13.34,0,0,7.1-10.01-13.26-18.22Z"/>
        <path class="cls-1" d="M58.61,201.4s23.17-3.06,24.38-18.8c0,0-2.72-12.68,15.89-12.76,0,0-24.39,2.23-27,13.34,0,0,7.1,10.01-13.26,18.22Z"/>
      </g>
      <g>
        <path class="cls-1" d="M31.22,201.41s23.17,3.06,24.38,18.8c0,0-2.72,12.68,15.89,12.76,0,0-24.39-2.23-27.01-13.34,0,0,7.1-10.01-13.25-18.22Z"/>
        <path class="cls-1" d="M31.22,201.4s23.17-3.06,24.38-18.8c0,0-2.72-12.68,15.89-12.76,0,0-24.39,2.23-27.01,13.34,0,0,7.1,10.01-13.25,18.22Z"/>
      </g>
      <g>
        <path class="cls-1" d="M3.83,201.41s23.17,3.06,24.38,18.8c0,0-2.72,12.68,15.88,12.76,0,0-24.39-2.23-27-13.34,0,0,7.1-10.01-13.26-18.22Z"/>
        <path class="cls-1" d="M3.83,201.4s23.17-3.06,24.38-18.8c0,0-2.72-12.68,15.88-12.76,0,0-24.39,2.23-27,13.34,0,0,7.1,10.01-13.26,18.22Z"/>
      </g>
    </g>
    <g>
      <g>
        <path class="cls-1" d="M58.61,264.54s23.17,3.06,24.38,18.8c0,0-2.72,12.68,15.89,12.76,0,0-24.39-2.23-27-13.34,0,0,7.1-10.01-13.26-18.22Z"/>
        <path class="cls-1" d="M58.61,264.53s23.17-3.06,24.38-18.8c0,0-2.72-12.68,15.89-12.76,0,0-24.39,2.23-27,13.34,0,0,7.1,10.01-13.26,18.22Z"/>
      </g>
      <g>
        <path class="cls-1" d="M31.22,264.54s23.17,3.06,24.38,18.8c0,0-2.72,12.68,15.89,12.76,0,0-24.39-2.23-27.01-13.34,0,0,7.1-10.01-13.25-18.22Z"/>
        <path class="cls-1" d="M31.22,264.53s23.17-3.06,24.38-18.8c0,0-2.72-12.68,15.89-12.76,0,0-24.39,2.23-27.01,13.34,0,0,7.1,10.01-13.25,18.22Z"/>
      </g>
      <g>
        <path class="cls-1" d="M3.83,264.54s23.17,3.06,24.38,18.8c0,0-2.72,12.68,15.88,12.76,0,0-24.39-2.23-27-13.34,0,0,7.1-10.01-13.26-18.22Z"/>
        <path class="cls-1" d="M3.83,264.53s23.17-3.06,24.38-18.8c0,0-2.72-12.68,15.88-12.76,0,0-24.39,2.23-27,13.34,0,0,7.1,10.01-13.26,18.22Z"/>
      </g>
    </g>
    <g>
      <g>
        <path class="cls-1" d="M58.62,328.29s23.17,3.06,24.37,18.8c0,0-2.72,12.68,15.89,12.76,0,0-24.39-2.23-27-13.34,0,0,7.1-10.01-13.25-18.22Z"/>
        <path class="cls-1" d="M58.62,328.29s23.17-3.06,24.37-18.8c0,0-2.72-12.68,15.89-12.76,0,0-24.39,2.23-27,13.34,0,0,7.1,10.01-13.25,18.22Z"/>
      </g>
      <g>
        <path class="cls-1" d="M31.23,328.29s23.17,3.06,24.38,18.8c0,0-2.72,12.68,15.89,12.76,0,0-24.39-2.23-27.01-13.34,0,0,7.1-10.01-13.26-18.22Z"/>
        <path class="cls-1" d="M31.23,328.29s23.17-3.06,24.38-18.8c0,0-2.72-12.68,15.89-12.76,0,0-24.39,2.23-27.01,13.34,0,0,7.1,10.01-13.26,18.22Z"/>
      </g>
      <g>
        <path class="cls-1" d="M3.83,328.29s23.17,3.06,24.38,18.8c0,0-2.72,12.68,15.89,12.76,0,0-24.39-2.23-27.01-13.34,0,0,7.1-10.01-13.26-18.22Z"/>
        <path class="cls-1" d="M3.83,328.29s23.17-3.06,24.38-18.8c0,0-2.72-12.68,15.89-12.76,0,0-24.39,2.23-27.01,13.34,0,0,7.1,10.01-13.26,18.22Z"/>
      </g>
    </g>
    <g>
      <g>
        <path class="cls-1" d="M1235.46,580.6s23.17,3.06,24.38,18.8c0,0-2.72,12.68,15.89,12.76,0,0-24.39-2.23-27.01-13.34,0,0,7.1-10.01-13.26-18.22Z"/>
        <path class="cls-1" d="M1235.46,580.59s23.17-3.06,24.38-18.8c0,0-2.72-12.68,15.89-12.76,0,0-24.39,2.23-27.01,13.34,0,0,7.1,10.01-13.26,18.22Z"/>
      </g>
      <g>
        <path class="cls-1" d="M1208.07,580.6s23.17,3.06,24.38,18.8c0,0-2.72,12.68,15.89,12.76,0,0-24.39-2.23-27.01-13.34,0,0,7.1-10.01-13.25-18.22Z"/>
        <path class="cls-1" d="M1208.07,580.59s23.17-3.06,24.38-18.8c0,0-2.72-12.68,15.89-12.76,0,0-24.39,2.23-27.01,13.34,0,0,7.1,10.01-13.25,18.22Z"/>
      </g>
      <g>
        <path class="cls-1" d="M1180.68,580.6s23.17,3.06,24.38,18.8c0,0-2.72,12.68,15.89,12.76,0,0-24.39-2.23-27.01-13.34,0,0,7.1-10.01-13.26-18.22Z"/>
        <path class="cls-1" d="M1180.68,580.59s23.17-3.06,24.38-18.8c0,0-2.72-12.68,15.89-12.76,0,0-24.39,2.23-27.01,13.34,0,0,7.1,10.01-13.26,18.22Z"/>
      </g>
    </g>
    <g>
      <g>
        <path class="cls-1" d="M1235.46,517.55s23.17,3.06,24.38,18.8c0,0-2.72,12.68,15.89,12.76,0,0-24.39-2.23-27.01-13.34,0,0,7.1-10.01-13.26-18.22Z"/>
        <path class="cls-1" d="M1235.46,517.54s23.17-3.06,24.38-18.8c0,0-2.72-12.68,15.89-12.76,0,0-24.39,2.23-27.01,13.34,0,0,7.1,10.01-13.26,18.22Z"/>
      </g>
      <g>
        <path class="cls-1" d="M1208.07,517.55s23.17,3.06,24.38,18.8c0,0-2.72,12.68,15.89,12.76,0,0-24.39-2.23-27.01-13.34,0,0,7.1-10.01-13.25-18.22Z"/>
        <path class="cls-1" d="M1208.07,517.54s23.17-3.06,24.38-18.8c0,0-2.72-12.68,15.89-12.76,0,0-24.39,2.23-27.01,13.34,0,0,7.1,10.01-13.25,18.22Z"/>
      </g>
      <g>
        <path class="cls-1" d="M1180.68,517.55s23.17,3.06,24.38,18.8c0,0-2.72,12.68,15.89,12.76,0,0-24.39-2.23-27.01-13.34,0,0,7.1-10.01-13.26-18.22Z"/>
        <path class="cls-1" d="M1180.68,517.54s23.17-3.06,24.38-18.8c0,0-2.72-12.68,15.89-12.76,0,0-24.39,2.23-27.01,13.34,0,0,7.1,10.01-13.26,18.22Z"/>
      </g>
    </g>
    <g>
      <g>
        <path class="cls-1" d="M1235.46,454.08s23.17,3.06,24.38,18.8c0,0-2.72,12.68,15.89,12.76,0,0-24.39-2.23-27.01-13.34,0,0,7.1-10.01-13.26-18.22Z"/>
        <path class="cls-1" d="M1235.46,454.08s23.17-3.06,24.38-18.8c0,0-2.72-12.68,15.89-12.76,0,0-24.39,2.23-27.01,13.34,0,0,7.1,10.01-13.26,18.22Z"/>
      </g>
      <g>
        <path class="cls-1" d="M1208.07,454.08s23.17,3.06,24.38,18.8c0,0-2.72,12.68,15.89,12.76,0,0-24.39-2.23-27.01-13.34,0,0,7.1-10.01-13.25-18.22Z"/>
        <path class="cls-1" d="M1208.07,454.08s23.17-3.06,24.38-18.8c0,0-2.72-12.68,15.89-12.76,0,0-24.39,2.23-27.01,13.34,0,0,7.1,10.01-13.25,18.22Z"/>
      </g>
      <g>
        <path class="cls-1" d="M1180.68,454.08s23.17,3.06,24.38,18.8c0,0-2.72,12.68,15.89,12.76,0,0-24.39-2.23-27.01-13.34,0,0,7.1-10.01-13.26-18.22Z"/>
        <path class="cls-1" d="M1180.68,454.08s23.17-3.06,24.38-18.8c0,0-2.72-12.68,15.89-12.76,0,0-24.39,2.23-27.01,13.34,0,0,7.1,10.01-13.26,18.22Z"/>
      </g>
    </g>
    <g>
      <g>
        <path class="cls-1" d="M1235.46,391.27s23.17,3.06,24.37,18.8c0,0-2.72,12.68,15.89,12.76,0,0-24.39-2.23-27.01-13.34,0,0,7.1-10.01-13.25-18.22Z"/>
        <path class="cls-1" d="M1235.46,391.27s23.17-3.06,24.37-18.8c0,0-2.72-12.68,15.89-12.76,0,0-24.39,2.23-27.01,13.34,0,0,7.1,10.01-13.25,18.22Z"/>
      </g>
      <g>
        <path class="cls-1" d="M1208.07,391.27s23.17,3.06,24.37,18.8c0,0-2.72,12.68,15.89,12.76,0,0-24.39-2.23-27.01-13.34,0,0,7.1-10.01-13.25-18.22Z"/>
        <path class="cls-1" d="M1208.07,391.27s23.17-3.06,24.37-18.8c0,0-2.72-12.68,15.89-12.76,0,0-24.39,2.23-27.01,13.34,0,0,7.1,10.01-13.25,18.22Z"/>
      </g>
      <g>
        <path class="cls-1" d="M1180.68,391.27s23.17,3.06,24.38,18.8c0,0-2.72,12.68,15.89,12.76,0,0-24.39-2.23-27.01-13.34,0,0,7.1-10.01-13.26-18.22Z"/>
        <path class="cls-1" d="M1180.68,391.27s23.17-3.06,24.38-18.8c0,0-2.72-12.68,15.89-12.76,0,0-24.39,2.23-27.01,13.34,0,0,7.1,10.01-13.26,18.22Z"/>
      </g>
    </g>
    <g>
      <g>
        <path class="cls-1" d="M1235.46,137.81s23.17,3.06,24.38,18.8c0,0-2.72,12.68,15.89,12.76,0,0-24.39-2.23-27.01-13.34,0,0,7.1-10.01-13.26-18.22Z"/>
        <path class="cls-1" d="M1235.46,137.8s23.17-3.06,24.38-18.8c0,0-2.72-12.68,15.89-12.76,0,0-24.39,2.23-27.01,13.34,0,0,7.1,10.01-13.26,18.22Z"/>
      </g>
      <g>
        <path class="cls-1" d="M1208.07,137.81s23.17,3.06,24.38,18.8c0,0-2.72,12.68,15.89,12.76,0,0-24.39-2.23-27.01-13.34,0,0,7.1-10.01-13.25-18.22Z"/>
        <path class="cls-1" d="M1208.07,137.8s23.17-3.06,24.38-18.8c0,0-2.72-12.68,15.89-12.76,0,0-24.39,2.23-27.01,13.34,0,0,7.1,10.01-13.25,18.22Z"/>
      </g>
      <g>
        <path class="cls-1" d="M1180.68,137.81s23.17,3.06,24.38,18.8c0,0-2.72,12.68,15.89,12.76,0,0-24.39-2.23-27.01-13.34,0,0,7.1-10.01-13.26-18.22Z"/>
        <path class="cls-1" d="M1180.68,137.8s23.17-3.06,24.38-18.8c0,0-2.72-12.68,15.89-12.76,0,0-24.39,2.23-27.01,13.34,0,0,7.1,10.01-13.26,18.22Z"/>
      </g>
    </g>
    <g>
      <g>
        <path class="cls-1" d="M1235.46,200.93s23.17,3.06,24.38,18.8c0,0-2.72,12.68,15.89,12.76,0,0-24.39-2.23-27.01-13.34,0,0,7.1-10.01-13.26-18.22Z"/>
        <path class="cls-1" d="M1235.46,200.93s23.17-3.06,24.38-18.8c0,0-2.72-12.68,15.89-12.76,0,0-24.39,2.23-27.01,13.34,0,0,7.1,10.01-13.26,18.22Z"/>
      </g>
      <g>
        <path class="cls-1" d="M1208.07,200.93s23.17,3.06,24.38,18.8c0,0-2.72,12.68,15.89,12.76,0,0-24.39-2.23-27.01-13.34,0,0,7.1-10.01-13.25-18.22Z"/>
        <path class="cls-1" d="M1208.07,200.93s23.17-3.06,24.38-18.8c0,0-2.72-12.68,15.89-12.76,0,0-24.39,2.23-27.01,13.34,0,0,7.1,10.01-13.25,18.22Z"/>
      </g>
      <g>
        <path class="cls-1" d="M1180.68,200.93s23.17,3.06,24.38,18.8c0,0-2.72,12.68,15.89,12.76,0,0-24.39-2.23-27.01-13.34,0,0,7.1-10.01-13.26-18.22Z"/>
        <path class="cls-1" d="M1180.68,200.93s23.17-3.06,24.38-18.8c0,0-2.72-12.68,15.89-12.76,0,0-24.39,2.23-27.01,13.34,0,0,7.1,10.01-13.26,18.22Z"/>
      </g>
    </g>
    <g>
      <g>
        <path class="cls-1" d="M1235.46,264.06s23.17,3.06,24.38,18.8c0,0-2.72,12.68,15.89,12.76,0,0-24.39-2.23-27.01-13.34,0,0,7.1-10.01-13.26-18.22Z"/>
        <path class="cls-1" d="M1235.46,264.06s23.17-3.06,24.38-18.8c0,0-2.72-12.68,15.89-12.76,0,0-24.39,2.23-27.01,13.34,0,0,7.1,10.01-13.26,18.22Z"/>
      </g>
      <g>
        <path class="cls-1" d="M1208.07,264.06s23.17,3.06,24.38,18.8c0,0-2.72,12.68,15.89,12.76,0,0-24.39-2.23-27.01-13.34,0,0,7.1-10.01-13.25-18.22Z"/>
        <path class="cls-1" d="M1208.07,264.06s23.17-3.06,24.38-18.8c0,0-2.72-12.68,15.89-12.76,0,0-24.39,2.23-27.01,13.34,0,0,7.1,10.01-13.25,18.22Z"/>
      </g>
      <g>
        <path class="cls-1" d="M1180.68,264.06s23.17,3.06,24.38,18.8c0,0-2.72,12.68,15.89,12.76,0,0-24.39-2.23-27.01-13.34,0,0,7.1-10.01-13.26-18.22Z"/>
        <path class="cls-1" d="M1180.68,264.06s23.17-3.06,24.38-18.8c0,0-2.72-12.68,15.89-12.76,0,0-24.39,2.23-27.01,13.34,0,0,7.1,10.01-13.26,18.22Z"/>
      </g>
    </g>
    <g>
      <g>
        <path class="cls-1" d="M1235.46,327.82s23.17,3.06,24.37,18.8c0,0-2.72,12.68,15.89,12.76,0,0-24.39-2.23-27.01-13.34,0,0,7.1-10.01-13.25-18.22Z"/>
        <path class="cls-1" d="M1235.46,327.81s23.17-3.06,24.37-18.8c0,0-2.72-12.68,15.89-12.76,0,0-24.39,2.23-27.01,13.34,0,0,7.1,10.01-13.25,18.22Z"/>
      </g>
      <g>
        <path class="cls-1" d="M1208.07,327.82s23.17,3.06,24.37,18.8c0,0-2.72,12.68,15.89,12.76,0,0-24.39-2.23-27.01-13.34,0,0,7.1-10.01-13.25-18.22Z"/>
        <path class="cls-1" d="M1208.07,327.81s23.17-3.06,24.37-18.8c0,0-2.72-12.68,15.89-12.76,0,0-24.39,2.23-27.01,13.34,0,0,7.1,10.01-13.25,18.22Z"/>
      </g>
      <g>
        <path class="cls-1" d="M1180.68,327.82s23.17,3.06,24.38,18.8c0,0-2.72,12.68,15.89,12.76,0,0-24.39-2.23-27.01-13.34,0,0,7.1-10.01-13.26-18.22Z"/>
        <path class="cls-1" d="M1180.68,327.81s23.17-3.06,24.38-18.8c0,0-2.72-12.68,15.89-12.76,0,0-24.39,2.23-27.01,13.34,0,0,7.1,10.01-13.26,18.22Z"/>
      </g>
    </g>
    <g>
      <g>
        <path class="cls-1" d="M1235.46,678.96s23.17,3.06,24.38,18.8c0,0-2.72,12.68,15.89,12.76,0,0-24.39-2.23-27.01-13.34,0,0,7.1-10.01-13.26-18.22Z"/>
        <path class="cls-1" d="M1235.46,678.96s23.17-3.06,24.38-18.8c0,0-2.72-12.68,15.89-12.76,0,0-24.39,2.23-27.01,13.34,0,0,7.1,10.01-13.26,18.22Z"/>
      </g>
      <g>
        <path class="cls-1" d="M1208.07,678.96s23.17,3.06,24.38,18.8c0,0-2.72,12.68,15.89,12.76,0,0-24.39-2.23-27.01-13.34,0,0,7.1-10.01-13.25-18.22Z"/>
        <path class="cls-1" d="M1208.07,678.96s23.17-3.06,24.38-18.8c0,0-2.72-12.68,15.89-12.76,0,0-24.39,2.23-27.01,13.34,0,0,7.1,10.01-13.25,18.22Z"/>
      </g>
      <g>
        <path class="cls-1" d="M1180.68,678.96s23.17,3.06,24.38,18.8c0,0-2.72,12.68,15.89,12.76,0,0-24.39-2.23-27.01-13.34,0,0,7.1-10.01-13.26-18.22Z"/>
        <path class="cls-1" d="M1180.68,678.96s23.17-3.06,24.38-18.8c0,0-2.72-12.68,15.89-12.76,0,0-24.39,2.23-27.01,13.34,0,0,7.1,10.01-13.26,18.22Z"/>
      </g>
    </g>
    <g>
      <g>
        <g>
          <path class="cls-1" d="M1099.69,680.43s23.17,3.06,24.38,18.8c0,0-2.72,12.68,15.89,12.76,0,0-24.39-2.23-27-13.34,0,0,7.1-10.01-13.26-18.22Z"/>
          <path class="cls-1" d="M1099.69,680.43s23.17-3.06,24.38-18.8c0,0-2.72-12.68,15.89-12.76,0,0-24.39,2.23-27,13.34,0,0,7.1,10.01-13.26,18.22Z"/>
        </g>
        <g>
          <path class="cls-1" d="M1072.3,680.43s23.17,3.06,24.38,18.8c0,0-2.72,12.68,15.89,12.76,0,0-24.39-2.23-27.01-13.34,0,0,7.1-10.01-13.25-18.22Z"/>
          <path class="cls-1" d="M1072.3,680.43s23.17-3.06,24.38-18.8c0,0-2.72-12.68,15.89-12.76,0,0-24.39,2.23-27.01,13.34,0,0,7.1,10.01-13.25,18.22Z"/>
        </g>
        <g>
          <path class="cls-1" d="M1044.91,680.43s23.17,3.06,24.38,18.8c0,0-2.72,12.68,15.89,12.76,0,0-24.39-2.23-27.01-13.34,0,0,7.1-10.01-13.26-18.22Z"/>
          <path class="cls-1" d="M1044.91,680.43s23.17-3.06,24.38-18.8c0,0-2.72-12.68,15.89-12.76,0,0-24.39,2.23-27.01,13.34,0,0,7.1,10.01-13.26,18.22Z"/>
        </g>
      </g>
      <g>
        <g>
          <path class="cls-1" d="M1017.52,680.44s23.17,3.06,24.38,18.8c0,0-2.72,12.68,15.89,12.76,0,0-24.39-2.23-27.01-13.34,0,0,7.1-10.01-13.26-18.22Z"/>
          <path class="cls-1" d="M1017.52,680.43s23.17-3.06,24.38-18.8c0,0-2.72-12.68,15.89-12.76,0,0-24.39,2.23-27.01,13.34,0,0,7.1,10.01-13.26,18.22Z"/>
        </g>
        <g>
          <path class="cls-1" d="M990.13,680.44s23.17,3.06,24.38,18.8c0,0-2.72,12.68,15.89,12.76,0,0-24.39-2.23-27.01-13.34,0,0,7.1-10.01-13.26-18.22Z"/>
          <path class="cls-1" d="M990.13,680.43s23.17-3.06,24.38-18.8c0,0-2.72-12.68,15.89-12.76,0,0-24.39,2.23-27.01,13.34,0,0,7.1,10.01-13.26,18.22Z"/>
        </g>
        <g>
          <path class="cls-1" d="M962.74,680.44s23.17,3.06,24.38,18.8c0,0-2.72,12.68,15.89,12.76,0,0-24.39-2.23-27.01-13.34,0,0,7.1-10.01-13.25-18.22Z"/>
          <path class="cls-1" d="M962.74,680.43s23.17-3.06,24.38-18.8c0,0-2.72-12.68,15.89-12.76,0,0-24.39,2.23-27.01,13.34,0,0,7.1,10.01-13.25,18.22Z"/>
        </g>
      </g>
      <g>
        <g>
          <path class="cls-1" d="M935.35,678.96s23.17,3.06,24.38,18.8c0,0-2.72,12.68,15.89,12.76,0,0-24.39-2.23-27.01-13.34,0,0,7.1-10.01-13.26-18.22Z"/>
          <path class="cls-1" d="M935.35,678.95s23.17-3.06,24.38-18.8c0,0-2.72-12.68,15.89-12.76,0,0-24.39,2.23-27.01,13.34,0,0,7.1,10.01-13.26,18.22Z"/>
        </g>
        <g>
          <path class="cls-1" d="M907.96,678.96s23.17,3.06,24.37,18.8c0,0-2.72,12.68,15.89,12.76,0,0-24.39-2.23-27.01-13.34,0,0,7.1-10.01-13.25-18.22Z"/>
          <path class="cls-1" d="M907.96,678.95s23.17-3.06,24.37-18.8c0,0-2.72-12.68,15.89-12.76,0,0-24.39,2.23-27.01,13.34,0,0,7.1,10.01-13.25,18.22Z"/>
        </g>
        <g>
          <path class="cls-1" d="M880.57,678.96s23.17,3.06,24.38,18.8c0,0-2.72,12.68,15.89,12.76,0,0-24.39-2.23-27.01-13.34,0,0,7.1-10.01-13.26-18.22Z"/>
          <path class="cls-1" d="M880.57,678.95s23.17-3.06,24.38-18.8c0,0-2.72-12.68,15.89-12.76,0,0-24.39,2.23-27.01,13.34,0,0,7.1,10.01-13.26,18.22Z"/>
        </g>
      </g>
      <g>
        <g>
          <path class="cls-1" d="M853.18,678.96s23.17,3.06,24.38,18.8c0,0-2.72,12.68,15.88,12.76,0,0-24.39-2.23-27-13.34,0,0,7.1-10.01-13.26-18.22Z"/>
          <path class="cls-1" d="M853.18,678.96s23.17-3.06,24.38-18.8c0,0-2.72-12.68,15.88-12.76,0,0-24.39,2.23-27,13.34,0,0,7.1,10.01-13.26,18.22Z"/>
        </g>
        <g>
          <path class="cls-1" d="M825.8,678.96s23.17,3.06,24.38,18.8c0,0-2.72,12.68,15.88,12.76,0,0-24.39-2.23-27.01-13.34,0,0,7.1-10.01-13.25-18.22Z"/>
          <path class="cls-1" d="M825.8,678.96s23.17-3.06,24.38-18.8c0,0-2.72-12.68,15.88-12.76,0,0-24.39,2.23-27.01,13.34,0,0,7.1,10.01-13.25,18.22Z"/>
        </g>
        <g>
          <path class="cls-1" d="M798.4,678.96s23.17,3.06,24.38,18.8c0,0-2.72,12.68,15.88,12.76,0,0-24.39-2.23-27.01-13.34,0,0,7.1-10.01-13.26-18.22Z"/>
          <path class="cls-1" d="M798.4,678.96s23.17-3.06,24.38-18.8c0,0-2.72-12.68,15.88-12.76,0,0-24.39,2.23-27.01,13.34,0,0,7.1,10.01-13.26,18.22Z"/>
        </g>
      </g>
      <g>
        <g>
          <path class="cls-1" d="M771.02,679.69s23.17,3.06,24.38,18.8c0,0-2.72,12.68,15.89,12.76,0,0-24.39-2.23-27.01-13.34,0,0,7.1-10.01-13.26-18.22Z"/>
          <path class="cls-1" d="M771.02,679.69s23.17-3.06,24.38-18.8c0,0-2.72-12.68,15.89-12.76,0,0-24.39,2.23-27.01,13.34,0,0,7.1,10.01-13.26,18.22Z"/>
        </g>
        <g>
          <path class="cls-1" d="M743.63,679.69s23.17,3.06,24.38,18.8c0,0-2.72,12.68,15.89,12.76,0,0-24.39-2.23-27.01-13.34,0,0,7.1-10.01-13.26-18.22Z"/>
          <path class="cls-1" d="M743.63,679.69s23.17-3.06,24.38-18.8c0,0-2.72-12.68,15.89-12.76,0,0-24.39,2.23-27.01,13.34,0,0,7.1,10.01-13.26,18.22Z"/>
        </g>
        <g>
          <path class="cls-1" d="M716.24,679.69s23.17,3.06,24.38,18.8c0,0-2.72,12.68,15.89,12.76,0,0-24.39-2.23-27.01-13.34,0,0,7.1-10.01-13.26-18.22Z"/>
          <path class="cls-1" d="M716.24,679.69s23.17-3.06,24.38-18.8c0,0-2.72-12.68,15.89-12.76,0,0-24.39,2.23-27.01,13.34,0,0,7.1,10.01-13.26,18.22Z"/>
        </g>
      </g>
      <g>
        <g>
          <path class="cls-1" d="M688.85,679.7s23.17,3.06,24.38,18.8c0,0-2.72,12.68,15.89,12.76,0,0-24.39-2.23-27.01-13.34,0,0,7.1-10.01-13.26-18.22Z"/>
          <path class="cls-1" d="M688.85,679.69s23.17-3.06,24.38-18.8c0,0-2.72-12.68,15.89-12.76,0,0-24.39,2.23-27.01,13.34,0,0,7.1,10.01-13.26,18.22Z"/>
        </g>
        <g>
          <path class="cls-1" d="M661.46,679.7s23.17,3.06,24.38,18.8c0,0-2.72,12.68,15.89,12.76,0,0-24.39-2.23-27.01-13.34,0,0,7.1-10.01-13.26-18.22Z"/>
          <path class="cls-1" d="M661.46,679.69s23.17-3.06,24.38-18.8c0,0-2.72-12.68,15.89-12.76,0,0-24.39,2.23-27.01,13.34,0,0,7.1,10.01-13.26,18.22Z"/>
        </g>
        <g>
          <path class="cls-1" d="M634.07,679.7s23.17,3.06,24.38,18.8c0,0-2.72,12.68,15.89,12.76,0,0-24.39-2.23-27.01-13.34,0,0,7.1-10.01-13.26-18.22Z"/>
          <path class="cls-1" d="M634.07,679.69s23.17-3.06,24.38-18.8c0,0-2.72-12.68,15.89-12.76,0,0-24.39,2.23-27.01,13.34,0,0,7.1,10.01-13.26,18.22Z"/>
        </g>
      </g>
      <g>
        <g>
          <path class="cls-1" d="M606.68,678.22s23.17,3.06,24.38,18.8c0,0-2.72,12.68,15.89,12.76,0,0-24.39-2.23-27.01-13.34,0,0,7.1-10.01-13.26-18.22Z"/>
          <path class="cls-1" d="M606.68,678.21s23.17-3.06,24.38-18.8c0,0-2.72-12.68,15.89-12.76,0,0-24.39,2.23-27.01,13.34,0,0,7.1,10.01-13.26,18.22Z"/>
        </g>
        <g>
          <path class="cls-1" d="M579.29,678.22s23.17,3.06,24.38,18.8c0,0-2.72,12.68,15.89,12.76,0,0-24.39-2.23-27.01-13.34,0,0,7.1-10.01-13.25-18.22Z"/>
          <path class="cls-1" d="M579.29,678.21s23.17-3.06,24.38-18.8c0,0-2.72-12.68,15.89-12.76,0,0-24.39,2.23-27.01,13.34,0,0,7.1,10.01-13.25,18.22Z"/>
        </g>
        <g>
          <path class="cls-1" d="M551.9,678.22s23.17,3.06,24.38,18.8c0,0-2.72,12.68,15.89,12.76,0,0-24.39-2.23-27.01-13.34,0,0,7.1-10.01-13.26-18.22Z"/>
          <path class="cls-1" d="M551.9,678.21s23.17-3.06,24.38-18.8c0,0-2.72-12.68,15.89-12.76,0,0-24.39,2.23-27.01,13.34,0,0,7.1,10.01-13.26,18.22Z"/>
        </g>
      </g>
      <g>
        <g>
          <path class="cls-1" d="M524.51,678.22s23.17,3.06,24.38,18.8c0,0-2.72,12.68,15.89,12.76,0,0-24.39-2.23-27.01-13.34,0,0,7.1-10.01-13.25-18.22Z"/>
          <path class="cls-1" d="M524.51,678.22s23.17-3.06,24.38-18.8c0,0-2.72-12.68,15.89-12.76,0,0-24.39,2.23-27.01,13.34,0,0,7.1,10.01-13.25,18.22Z"/>
        </g>
        <g>
          <path class="cls-1" d="M497.13,678.22s23.17,3.06,24.38,18.8c0,0-2.72,12.68,15.89,12.76,0,0-24.39-2.23-27.01-13.34,0,0,7.1-10.01-13.25-18.22Z"/>
          <path class="cls-1" d="M497.13,678.22s23.17-3.06,24.38-18.8c0,0-2.72-12.68,15.89-12.76,0,0-24.39,2.23-27.01,13.34,0,0,7.1,10.01-13.25,18.22Z"/>
        </g>
        <g>
          <path class="cls-1" d="M469.74,678.22s23.17,3.06,24.38,18.8c0,0-2.72,12.68,15.89,12.76,0,0-24.39-2.23-27.01-13.34,0,0,7.1-10.01-13.25-18.22Z"/>
          <path class="cls-1" d="M469.74,678.22s23.17-3.06,24.38-18.8c0,0-2.72-12.68,15.89-12.76,0,0-24.39,2.23-27.01,13.34,0,0,7.1,10.01-13.25,18.22Z"/>
        </g>
      </g>
      <g>
        <g>
          <path class="cls-1" d="M442.35,679.7s23.17,3.06,24.38,18.8c0,0-2.72,12.68,15.89,12.76,0,0-24.39-2.23-27.01-13.34,0,0,7.1-10.01-13.25-18.22Z"/>
          <path class="cls-1" d="M442.35,679.7s23.17-3.06,24.38-18.8c0,0-2.72-12.68,15.89-12.76,0,0-24.39,2.23-27.01,13.34,0,0,7.1,10.01-13.25,18.22Z"/>
        </g>
        <g>
          <path class="cls-1" d="M414.96,679.7s23.17,3.06,24.38,18.8c0,0-2.72,12.68,15.89,12.76,0,0-24.39-2.23-27.01-13.34,0,0,7.1-10.01-13.25-18.22Z"/>
          <path class="cls-1" d="M414.96,679.7s23.17-3.06,24.38-18.8c0,0-2.72-12.68,15.89-12.76,0,0-24.39,2.23-27.01,13.34,0,0,7.1,10.01-13.25,18.22Z"/>
        </g>
        <g>
          <path class="cls-1" d="M387.57,679.7s23.17,3.06,24.38,18.8c0,0-2.72,12.68,15.89,12.76,0,0-24.39-2.23-27.01-13.34,0,0,7.1-10.01-13.25-18.22Z"/>
          <path class="cls-1" d="M387.57,679.7s23.17-3.06,24.38-18.8c0,0-2.72-12.68,15.89-12.76,0,0-24.39,2.23-27.01,13.34,0,0,7.1,10.01-13.25,18.22Z"/>
        </g>
      </g>
      <g>
        <g>
          <path class="cls-1" d="M360.18,679.71s23.17,3.06,24.38,18.8c0,0-2.72,12.68,15.89,12.76,0,0-24.39-2.23-27.01-13.34,0,0,7.1-10.01-13.26-18.22Z"/>
          <path class="cls-1" d="M360.18,679.7s23.17-3.06,24.38-18.8c0,0-2.72-12.68,15.89-12.76,0,0-24.39,2.23-27.01,13.34,0,0,7.1,10.01-13.26,18.22Z"/>
        </g>
        <g>
          <path class="cls-1" d="M332.79,679.71s23.17,3.06,24.38,18.8c0,0-2.72,12.68,15.88,12.76,0,0-24.39-2.23-27-13.34,0,0,7.1-10.01-13.25-18.22Z"/>
          <path class="cls-1" d="M332.79,679.7s23.17-3.06,24.38-18.8c0,0-2.72-12.68,15.88-12.76,0,0-24.39,2.23-27,13.34,0,0,7.1,10.01-13.25,18.22Z"/>
        </g>
        <g>
          <path class="cls-1" d="M305.4,679.71s23.17,3.06,24.38,18.8c0,0-2.72,12.68,15.89,12.76,0,0-24.39-2.23-27.01-13.34,0,0,7.1-10.01-13.26-18.22Z"/>
          <path class="cls-1" d="M305.4,679.7s23.17-3.06,24.38-18.8c0,0-2.72-12.68,15.89-12.76,0,0-24.39,2.23-27.01,13.34,0,0,7.1,10.01-13.26,18.22Z"/>
        </g>
      </g>
      <g>
        <g>
          <path class="cls-1" d="M278.01,678.23s23.17,3.06,24.38,18.8c0,0-2.72,12.68,15.88,12.76,0,0-24.39-2.23-27-13.34,0,0,7.1-10.01-13.25-18.22Z"/>
          <path class="cls-1" d="M278.01,678.22s23.17-3.06,24.38-18.8c0,0-2.72-12.68,15.88-12.76,0,0-24.39,2.23-27,13.34,0,0,7.1,10.01-13.25,18.22Z"/>
        </g>
        <g>
          <path class="cls-1" d="M250.62,678.23s23.17,3.06,24.38,18.8c0,0-2.72,12.68,15.89,12.76,0,0-24.39-2.23-27.01-13.34,0,0,7.1-10.01-13.25-18.22Z"/>
          <path class="cls-1" d="M250.62,678.22s23.17-3.06,24.38-18.8c0,0-2.72-12.68,15.89-12.76,0,0-24.39,2.23-27.01,13.34,0,0,7.1,10.01-13.25,18.22Z"/>
        </g>
        <g>
          <path class="cls-1" d="M223.23,678.23s23.17,3.06,24.38,18.8c0,0-2.72,12.68,15.89,12.76,0,0-24.39-2.23-27.01-13.34,0,0,7.1-10.01-13.26-18.22Z"/>
          <path class="cls-1" d="M223.23,678.22s23.17-3.06,24.38-18.8c0,0-2.72-12.68,15.89-12.76,0,0-24.39,2.23-27.01,13.34,0,0,7.1,10.01-13.26,18.22Z"/>
        </g>
      </g>
      <g>
        <g>
          <path class="cls-1" d="M195.84,678.23s23.17,3.06,24.38,18.8c0,0-2.72,12.68,15.89,12.76,0,0-24.39-2.23-27-13.34,0,0,7.1-10.01-13.26-18.22Z"/>
          <path class="cls-1" d="M195.84,678.23s23.17-3.06,24.38-18.8c0,0-2.72-12.68,15.89-12.76,0,0-24.39,2.23-27,13.34,0,0,7.1,10.01-13.26,18.22Z"/>
        </g>
        <g>
          <path class="cls-1" d="M168.46,678.23s23.17,3.06,24.38,18.8c0,0-2.72,12.68,15.89,12.76,0,0-24.39-2.23-27.01-13.34,0,0,7.1-10.01-13.26-18.22Z"/>
          <path class="cls-1" d="M168.46,678.23s23.17-3.06,24.38-18.8c0,0-2.72-12.68,15.89-12.76,0,0-24.39,2.23-27.01,13.34,0,0,7.1,10.01-13.26,18.22Z"/>
        </g>
        <g>
          <path class="cls-1" d="M141.06,678.23s23.17,3.06,24.38,18.8c0,0-2.72,12.68,15.89,12.76,0,0-24.39-2.23-27.01-13.34,0,0,7.1-10.01-13.26-18.22Z"/>
          <path class="cls-1" d="M141.06,678.23s23.17-3.06,24.38-18.8c0,0-2.72-12.68,15.89-12.76,0,0-24.39,2.23-27.01,13.34,0,0,7.1,10.01-13.26,18.22Z"/>
        </g>
      </g>
    </g>
    <g>
      <g>
        <path class="cls-1" d="M58.61,679.25s23.17,3.06,24.38,18.8c0,0-2.72,12.68,15.89,12.76,0,0-24.39-2.23-27-13.34,0,0,7.1-10.01-13.26-18.22Z"/>
        <path class="cls-1" d="M58.61,679.24s23.17-3.06,24.38-18.8c0,0-2.72-12.68,15.89-12.76,0,0-24.39,2.23-27,13.34,0,0,7.1,10.01-13.26,18.22Z"/>
      </g>
      <g>
        <path class="cls-1" d="M31.22,679.25s23.17,3.06,24.38,18.8c0,0-2.72,12.68,15.89,12.76,0,0-24.39-2.23-27.01-13.34,0,0,7.1-10.01-13.25-18.22Z"/>
        <path class="cls-1" d="M31.22,679.24s23.17-3.06,24.38-18.8c0,0-2.72-12.68,15.89-12.76,0,0-24.39,2.23-27.01,13.34,0,0,7.1,10.01-13.25,18.22Z"/>
      </g>
      <g>
        <path class="cls-1" d="M3.83,679.25s23.17,3.06,24.38,18.8c0,0-2.72,12.68,15.88,12.76,0,0-24.39-2.23-27-13.34,0,0,7.1-10.01-13.26-18.22Z"/>
        <path class="cls-1" d="M3.83,679.24s23.17-3.06,24.38-18.8c0,0-2.72-12.68,15.88-12.76,0,0-24.39,2.23-27,13.34,0,0,7.1,10.01-13.26,18.22Z"/>
      </g>
    </g>
    <g>
      <g>
        <g>
          <path class="cls-1" d="M1099.86,38.32s23.17,3.06,24.38,18.8c0,0-2.72,12.68,15.89,12.76,0,0-24.39-2.23-27.01-13.34,0,0,7.1-10.01-13.26-18.22Z"/>
          <path class="cls-1" d="M1099.86,38.32s23.17-3.06,24.38-18.8c0,0-2.72-12.68,15.89-12.76,0,0-24.39,2.23-27.01,13.34,0,0,7.1,10.01-13.26,18.22Z"/>
        </g>
        <g>
          <path class="cls-1" d="M1072.47,38.32s23.17,3.06,24.38,18.8c0,0-2.72,12.68,15.89,12.76,0,0-24.39-2.23-27-13.34,0,0,7.1-10.01-13.26-18.22Z"/>
          <path class="cls-1" d="M1072.47,38.32s23.17-3.06,24.38-18.8c0,0-2.72-12.68,15.89-12.76,0,0-24.39,2.23-27,13.34,0,0,7.1,10.01-13.26,18.22Z"/>
        </g>
        <g>
          <path class="cls-1" d="M1045.08,38.32s23.17,3.06,24.38,18.8c0,0-2.72,12.68,15.89,12.76,0,0-24.39-2.23-27.01-13.34,0,0,7.1-10.01-13.25-18.22Z"/>
          <path class="cls-1" d="M1045.08,38.32s23.17-3.06,24.38-18.8c0,0-2.72-12.68,15.89-12.76,0,0-24.39,2.23-27.01,13.34,0,0,7.1,10.01-13.25,18.22Z"/>
        </g>
      </g>
      <g>
        <g>
          <path class="cls-1" d="M1017.69,38.33s23.17,3.06,24.38,18.8c0,0-2.72,12.68,15.89,12.76,0,0-24.39-2.23-27.01-13.34,0,0,7.1-10.01-13.26-18.22Z"/>
          <path class="cls-1" d="M1017.69,38.32s23.17-3.06,24.38-18.8c0,0-2.72-12.68,15.89-12.76,0,0-24.39,2.23-27.01,13.34,0,0,7.1,10.01-13.26,18.22Z"/>
        </g>
        <g>
          <path class="cls-1" d="M990.3,38.33s23.17,3.06,24.38,18.8c0,0-2.72,12.68,15.89,12.76,0,0-24.39-2.23-27-13.34,0,0,7.1-10.01-13.26-18.22Z"/>
          <path class="cls-1" d="M990.3,38.32s23.17-3.06,24.38-18.8c0,0-2.72-12.68,15.89-12.76,0,0-24.39,2.23-27,13.34,0,0,7.1,10.01-13.26,18.22Z"/>
        </g>
        <g>
          <path class="cls-1" d="M962.91,38.33s23.17,3.06,24.38,18.8c0,0-2.72,12.68,15.89,12.76,0,0-24.39-2.23-27-13.34,0,0,7.1-10.01-13.26-18.22Z"/>
          <path class="cls-1" d="M962.91,38.32s23.17-3.06,24.38-18.8c0,0-2.72-12.68,15.89-12.76,0,0-24.39,2.23-27,13.34,0,0,7.1,10.01-13.26,18.22Z"/>
        </g>
      </g>
      <g>
        <g>
          <path class="cls-1" d="M935.52,36.85s23.17,3.06,24.38,18.8c0,0-2.72,12.68,15.88,12.76,0,0-24.39-2.23-27.01-13.34,0,0,7.1-10.01-13.25-18.22Z"/>
          <path class="cls-1" d="M935.52,36.84s23.17-3.06,24.38-18.8c0,0-2.72-12.68,15.88-12.76,0,0-24.39,2.23-27.01,13.34,0,0,7.1,10.01-13.25,18.22Z"/>
        </g>
        <g>
          <path class="cls-1" d="M908.13,36.85s23.17,3.06,24.37,18.8c0,0-2.72,12.68,15.89,12.76,0,0-24.39-2.23-27.01-13.34,0,0,7.1-10.01-13.25-18.22Z"/>
          <path class="cls-1" d="M908.13,36.84s23.17-3.06,24.37-18.8c0,0-2.72-12.68,15.89-12.76,0,0-24.39,2.23-27.01,13.34,0,0,7.1,10.01-13.25,18.22Z"/>
        </g>
        <g>
          <path class="cls-1" d="M880.74,36.85s23.17,3.06,24.38,18.8c0,0-2.72,12.68,15.89,12.76,0,0-24.39-2.23-27.01-13.34,0,0,7.1-10.01-13.26-18.22Z"/>
          <path class="cls-1" d="M880.74,36.84s23.17-3.06,24.38-18.8c0,0-2.72-12.68,15.89-12.76,0,0-24.39,2.23-27.01,13.34,0,0,7.1,10.01-13.26,18.22Z"/>
        </g>
      </g>
      <g>
        <g>
          <path class="cls-1" d="M853.35,36.85s23.17,3.06,24.38,18.8c0,0-2.72,12.68,15.89,12.76,0,0-24.39-2.23-27.01-13.34,0,0,7.1-10.01-13.26-18.22Z"/>
          <path class="cls-1" d="M853.35,36.85s23.17-3.06,24.38-18.8c0,0-2.72-12.68,15.89-12.76,0,0-24.39,2.23-27.01,13.34,0,0,7.1,10.01-13.26,18.22Z"/>
        </g>
        <g>
          <path class="cls-1" d="M825.97,36.85s23.17,3.06,24.38,18.8c0,0-2.72,12.68,15.89,12.76,0,0-24.39-2.23-27.01-13.34,0,0,7.1-10.01-13.26-18.22Z"/>
          <path class="cls-1" d="M825.97,36.85s23.17-3.06,24.38-18.8c0,0-2.72-12.68,15.89-12.76,0,0-24.39,2.23-27.01,13.34,0,0,7.1,10.01-13.26,18.22Z"/>
        </g>
        <g>
          <path class="cls-1" d="M798.58,36.85s23.17,3.06,24.38,18.8c0,0-2.72,12.68,15.89,12.76,0,0-24.39-2.23-27.01-13.34,0,0,7.1-10.01-13.26-18.22Z"/>
          <path class="cls-1" d="M798.58,36.85s23.17-3.06,24.38-18.8c0,0-2.72-12.68,15.89-12.76,0,0-24.39,2.23-27.01,13.34,0,0,7.1,10.01-13.26,18.22Z"/>
        </g>
      </g>
      <g>
        <g>
          <path class="cls-1" d="M771.19,37.58s23.17,3.06,24.38,18.8c0,0-2.72,12.68,15.89,12.76,0,0-24.39-2.23-27.01-13.34,0,0,7.1-10.01-13.26-18.22Z"/>
          <path class="cls-1" d="M771.19,37.58s23.17-3.06,24.38-18.8c0,0-2.72-12.68,15.89-12.76,0,0-24.39,2.23-27.01,13.34,0,0,7.1,10.01-13.26,18.22Z"/>
        </g>
        <g>
          <path class="cls-1" d="M743.8,37.58s23.17,3.06,24.38,18.8c0,0-2.72,12.68,15.89,12.76,0,0-24.39-2.23-27.01-13.34,0,0,7.1-10.01-13.25-18.22Z"/>
          <path class="cls-1" d="M743.8,37.58s23.17-3.06,24.38-18.8c0,0-2.72-12.68,15.89-12.76,0,0-24.39,2.23-27.01,13.34,0,0,7.1,10.01-13.25,18.22Z"/>
        </g>
        <g>
          <path class="cls-1" d="M716.41,37.58s23.17,3.06,24.38,18.8c0,0-2.72,12.68,15.89,12.76,0,0-24.39-2.23-27.01-13.34,0,0,7.1-10.01-13.26-18.22Z"/>
          <path class="cls-1" d="M716.41,37.58s23.17-3.06,24.38-18.8c0,0-2.72-12.68,15.89-12.76,0,0-24.39,2.23-27.01,13.34,0,0,7.1,10.01-13.26,18.22Z"/>
        </g>
      </g>
      <g>
        <g>
          <path class="cls-1" d="M689.02,37.59s23.17,3.06,24.38,18.8c0,0-2.72,12.68,15.89,12.76,0,0-24.39-2.23-27.01-13.34,0,0,7.1-10.01-13.25-18.22Z"/>
          <path class="cls-1" d="M689.02,37.58s23.17-3.06,24.38-18.8c0,0-2.72-12.68,15.89-12.76,0,0-24.39,2.23-27.01,13.34,0,0,7.1,10.01-13.25,18.22Z"/>
        </g>
        <g>
          <path class="cls-1" d="M661.63,37.59s23.17,3.06,24.38,18.8c0,0-2.72,12.68,15.89,12.76,0,0-24.39-2.23-27.01-13.34,0,0,7.1-10.01-13.25-18.22Z"/>
          <path class="cls-1" d="M661.63,37.58s23.17-3.06,24.38-18.8c0,0-2.72-12.68,15.89-12.76,0,0-24.39,2.23-27.01,13.34,0,0,7.1,10.01-13.25,18.22Z"/>
        </g>
        <g>
          <path class="cls-1" d="M634.24,37.59s23.17,3.06,24.38,18.8c0,0-2.72,12.68,15.89,12.76,0,0-24.39-2.23-27.01-13.34,0,0,7.1-10.01-13.26-18.22Z"/>
          <path class="cls-1" d="M634.24,37.58s23.17-3.06,24.38-18.8c0,0-2.72-12.68,15.89-12.76,0,0-24.39,2.23-27.01,13.34,0,0,7.1,10.01-13.26,18.22Z"/>
        </g>
      </g>
      <g>
        <g>
          <path class="cls-1" d="M606.85,36.11s23.17,3.06,24.38,18.8c0,0-2.72,12.68,15.89,12.76,0,0-24.39-2.23-27.01-13.34,0,0,7.1-10.01-13.26-18.22Z"/>
          <path class="cls-1" d="M606.85,36.1s23.17-3.06,24.38-18.8c0,0-2.72-12.68,15.89-12.76,0,0-24.39,2.23-27.01,13.34,0,0,7.1,10.01-13.26,18.22Z"/>
        </g>
        <g>
          <path class="cls-1" d="M579.47,36.11s23.17,3.06,24.38,18.8c0,0-2.72,12.68,15.89,12.76,0,0-24.39-2.23-27.01-13.34,0,0,7.1-10.01-13.25-18.22Z"/>
          <path class="cls-1" d="M579.47,36.1s23.17-3.06,24.38-18.8c0,0-2.72-12.68,15.89-12.76,0,0-24.39,2.23-27.01,13.34,0,0,7.1,10.01-13.25,18.22Z"/>
        </g>
        <g>
          <path class="cls-1" d="M552.07,36.11s23.17,3.06,24.38,18.8c0,0-2.72,12.68,15.89,12.76,0,0-24.39-2.23-27.01-13.34,0,0,7.1-10.01-13.26-18.22Z"/>
          <path class="cls-1" d="M552.07,36.1s23.17-3.06,24.38-18.8c0,0-2.72-12.68,15.89-12.76,0,0-24.39,2.23-27.01,13.34,0,0,7.1,10.01-13.26,18.22Z"/>
        </g>
      </g>
      <g>
        <g>
          <path class="cls-1" d="M524.68,36.11s23.17,3.06,24.38,18.8c0,0-2.72,12.68,15.88,12.76,0,0-24.39-2.23-27.01-13.34,0,0,7.1-10.01-13.26-18.22Z"/>
          <path class="cls-1" d="M524.68,36.11s23.17-3.06,24.38-18.8c0,0-2.72-12.68,15.88-12.76,0,0-24.39,2.23-27.01,13.34,0,0,7.1,10.01-13.26,18.22Z"/>
        </g>
        <g>
          <path class="cls-1" d="M497.3,36.11s23.17,3.06,24.38,18.8c0,0-2.72,12.68,15.89,12.76,0,0-24.39-2.23-27.01-13.34,0,0,7.1-10.01-13.25-18.22Z"/>
          <path class="cls-1" d="M497.3,36.11s23.17-3.06,24.38-18.8c0,0-2.72-12.68,15.89-12.76,0,0-24.39,2.23-27.01,13.34,0,0,7.1,10.01-13.25,18.22Z"/>
        </g>
        <g>
          <path class="cls-1" d="M469.91,36.11s23.17,3.06,24.38,18.8c0,0-2.72,12.68,15.89,12.76,0,0-24.39-2.23-27.01-13.34,0,0,7.1-10.01-13.26-18.22Z"/>
          <path class="cls-1" d="M469.91,36.11s23.17-3.06,24.38-18.8c0,0-2.72-12.68,15.89-12.76,0,0-24.39,2.23-27.01,13.34,0,0,7.1,10.01-13.26,18.22Z"/>
        </g>
      </g>
      <g>
        <g>
          <path class="cls-1" d="M442.52,37.59s23.17,3.06,24.38,18.8c0,0-2.72,12.68,15.89,12.76,0,0-24.39-2.23-27.01-13.34,0,0,7.1-10.01-13.26-18.22Z"/>
          <path class="cls-1" d="M442.52,37.59s23.17-3.06,24.38-18.8c0,0-2.72-12.68,15.89-12.76,0,0-24.39,2.23-27.01,13.34,0,0,7.1,10.01-13.26,18.22Z"/>
        </g>
        <g>
          <path class="cls-1" d="M415.13,37.59s23.17,3.06,24.38,18.8c0,0-2.72,12.68,15.89,12.76,0,0-24.39-2.23-27.01-13.34,0,0,7.1-10.01-13.25-18.22Z"/>
          <path class="cls-1" d="M415.13,37.59s23.17-3.06,24.38-18.8c0,0-2.72-12.68,15.89-12.76,0,0-24.39,2.23-27.01,13.34,0,0,7.1,10.01-13.25,18.22Z"/>
        </g>
        <g>
          <path class="cls-1" d="M387.74,37.59s23.17,3.06,24.38,18.8c0,0-2.72,12.68,15.88,12.76,0,0-24.39-2.23-27-13.34,0,0,7.1-10.01-13.26-18.22Z"/>
          <path class="cls-1" d="M387.74,37.59s23.17-3.06,24.38-18.8c0,0-2.72-12.68,15.88-12.76,0,0-24.39,2.23-27,13.34,0,0,7.1,10.01-13.26,18.22Z"/>
        </g>
      </g>
      <g>
        <g>
          <path class="cls-1" d="M360.35,37.6s23.17,3.06,24.38,18.8c0,0-2.72,12.68,15.89,12.76,0,0-24.39-2.23-27.01-13.34,0,0,7.1-10.01-13.25-18.22Z"/>
          <path class="cls-1" d="M360.35,37.59s23.17-3.06,24.38-18.8c0,0-2.72-12.68,15.89-12.76,0,0-24.39,2.23-27.01,13.34,0,0,7.1,10.01-13.25,18.22Z"/>
        </g>
        <g>
          <path class="cls-1" d="M332.96,37.6s23.17,3.06,24.38,18.8c0,0-2.72,12.68,15.89,12.76,0,0-24.39-2.23-27.01-13.34,0,0,7.1-10.01-13.25-18.22Z"/>
          <path class="cls-1" d="M332.96,37.59s23.17-3.06,24.38-18.8c0,0-2.72-12.68,15.89-12.76,0,0-24.39,2.23-27.01,13.34,0,0,7.1,10.01-13.25,18.22Z"/>
        </g>
        <g>
          <path class="cls-1" d="M305.57,37.6s23.17,3.06,24.38,18.8c0,0-2.72,12.68,15.89,12.76,0,0-24.39-2.23-27.01-13.34,0,0,7.1-10.01-13.26-18.22Z"/>
          <path class="cls-1" d="M305.57,37.59s23.17-3.06,24.38-18.8c0,0-2.72-12.68,15.89-12.76,0,0-24.39,2.23-27.01,13.34,0,0,7.1,10.01-13.26,18.22Z"/>
        </g>
      </g>
      <g>
        <g>
          <path class="cls-1" d="M278.18,36.12s23.17,3.06,24.38,18.8c0,0-2.72,12.68,15.89,12.76,0,0-24.39-2.23-27.01-13.34,0,0,7.1-10.01-13.25-18.22Z"/>
          <path class="cls-1" d="M278.18,36.11s23.17-3.06,24.38-18.8c0,0-2.72-12.68,15.89-12.76,0,0-24.39,2.23-27.01,13.34,0,0,7.1,10.01-13.25,18.22Z"/>
        </g>
        <g>
          <path class="cls-1" d="M250.79,36.12s23.17,3.06,24.38,18.8c0,0-2.72,12.68,15.89,12.76,0,0-24.39-2.23-27-13.34,0,0,7.1-10.01-13.26-18.22Z"/>
          <path class="cls-1" d="M250.79,36.11s23.17-3.06,24.38-18.8c0,0-2.72-12.68,15.89-12.76,0,0-24.39,2.23-27,13.34,0,0,7.1,10.01-13.26,18.22Z"/>
        </g>
        <g>
          <path class="cls-1" d="M223.4,36.12s23.17,3.06,24.38,18.8c0,0-2.72,12.68,15.89,12.76,0,0-24.39-2.23-27.01-13.34,0,0,7.1-10.01-13.26-18.22Z"/>
          <path class="cls-1" d="M223.4,36.11s23.17-3.06,24.38-18.8c0,0-2.72-12.68,15.89-12.76,0,0-24.39,2.23-27.01,13.34,0,0,7.1,10.01-13.26,18.22Z"/>
        </g>
      </g>
      <g>
        <g>
          <path class="cls-1" d="M196.02,36.12s23.17,3.06,24.38,18.8c0,0-2.72,12.68,15.89,12.76,0,0-24.39-2.23-27.01-13.34,0,0,7.1-10.01-13.25-18.22Z"/>
          <path class="cls-1" d="M196.02,36.12s23.17-3.06,24.38-18.8c0,0-2.72-12.68,15.89-12.76,0,0-24.39,2.23-27.01,13.34,0,0,7.1,10.01-13.25,18.22Z"/>
        </g>
        <g>
          <path class="cls-1" d="M168.63,36.12s23.17,3.06,24.38,18.8c0,0-2.72,12.68,15.89,12.76,0,0-24.39-2.23-27.01-13.34,0,0,7.1-10.01-13.26-18.22Z"/>
          <path class="cls-1" d="M168.63,36.12s23.17-3.06,24.38-18.8c0,0-2.72-12.68,15.89-12.76,0,0-24.39,2.23-27.01,13.34,0,0,7.1,10.01-13.26,18.22Z"/>
        </g>
        <g>
          <path class="cls-1" d="M141.24,36.12s23.17,3.06,24.38,18.8c0,0-2.72,12.68,15.89,12.76,0,0-24.39-2.23-27-13.34,0,0,7.1-10.01-13.26-18.22Z"/>
          <path class="cls-1" d="M141.24,36.12s23.17-3.06,24.38-18.8c0,0-2.72-12.68,15.89-12.76,0,0-24.39,2.23-27,13.34,0,0,7.1,10.01-13.26,18.22Z"/>
        </g>
      </g>
    </g>
    <g>
      <g>
        <path class="cls-1" d="M1235.46,38.33s23.17,3.06,24.38,18.8c0,0-2.72,12.68,15.89,12.76,0,0-24.39-2.23-27.01-13.34,0,0,7.1-10.01-13.26-18.22Z"/>
        <path class="cls-1" d="M1235.46,38.32s23.17-3.06,24.38-18.8c0,0-2.72-12.68,15.89-12.76,0,0-24.39,2.23-27.01,13.34,0,0,7.1,10.01-13.26,18.22Z"/>
      </g>
      <g>
        <path class="cls-1" d="M1208.07,38.33s23.17,3.06,24.37,18.8c0,0-2.72,12.68,15.89,12.76,0,0-24.39-2.23-27.01-13.34,0,0,7.1-10.01-13.25-18.22Z"/>
        <path class="cls-1" d="M1208.07,38.32s23.17-3.06,24.37-18.8c0,0-2.72-12.68,15.89-12.76,0,0-24.39,2.23-27.01,13.34,0,0,7.1,10.01-13.25,18.22Z"/>
      </g>
      <g>
        <path class="cls-1" d="M1180.68,38.33s23.17,3.06,24.38,18.8c0,0-2.72,12.68,15.89,12.76,0,0-24.39-2.23-27.01-13.34,0,0,7.1-10.01-13.26-18.22Z"/>
        <path class="cls-1" d="M1180.68,38.32s23.17-3.06,24.38-18.8c0,0-2.72-12.68,15.89-12.76,0,0-24.39,2.23-27.01,13.34,0,0,7.1,10.01-13.26,18.22Z"/>
      </g>
    </g>
    <g>
      <g>
        <path class="cls-1" d="M58.61,38.33s23.17,3.06,24.38,18.8c0,0-2.72,12.68,15.89,12.76,0,0-24.39-2.23-27-13.34,0,0,7.1-10.01-13.26-18.22Z"/>
        <path class="cls-1" d="M58.61,38.33s23.17-3.06,24.38-18.8c0,0-2.72-12.68,15.89-12.76,0,0-24.39,2.23-27,13.34,0,0,7.1,10.01-13.26,18.22Z"/>
      </g>
      <g>
        <path class="cls-1" d="M31.22,38.33s23.17,3.06,24.38,18.8c0,0-2.72,12.68,15.89,12.76,0,0-24.39-2.23-27.01-13.34,0,0,7.1-10.01-13.25-18.22Z"/>
        <path class="cls-1" d="M31.22,38.33s23.17-3.06,24.38-18.8c0,0-2.72-12.68,15.89-12.76,0,0-24.39,2.23-27.01,13.34,0,0,7.1,10.01-13.25,18.22Z"/>
      </g>
      <g>
        <path class="cls-1" d="M3.83,38.33s23.17,3.06,24.38,18.8c0,0-2.72,12.68,15.88,12.76,0,0-24.39-2.23-27-13.34,0,0,7.1-10.01-13.26-18.22Z"/>
        <path class="cls-1" d="M3.83,38.33s23.17-3.06,24.38-18.8c0,0-2.72-12.68,15.88-12.76,0,0-24.39,2.23-27,13.34,0,0,7.1,10.01-13.26,18.22Z"/>
      </g>
    </g>
    <g>
      <polygon class="cls-4" points="1126.84 138.88 1085.03 174.71 1041.49 138.88 1083.3 103.06 1126.84 138.88"/>
      <polygon class="cls-4" points="1126.84 285.61 1085.03 321.44 1041.49 285.61 1083.3 249.79 1126.84 285.61"/>
      <polygon class="cls-4" points="1126.84 212.24 1085.03 248.07 1041.49 212.24 1083.3 176.42 1126.84 212.24"/>
      <polygon class="cls-4" points="1126.84 358.97 1085.03 394.8 1041.49 358.97 1083.3 323.15 1126.84 358.97"/>
      <polygon class="cls-4" points="1126.84 505.7 1085.03 541.53 1041.49 505.7 1083.3 469.88 1126.84 505.7"/>
      <polygon class="cls-4" points="1126.84 432.34 1085.03 468.17 1041.49 432.34 1083.3 396.51 1126.84 432.34"/>
      <polygon class="cls-4" points="1126.84 579.07 1085.03 614.9 1041.49 579.07 1083.3 543.25 1126.84 579.07"/>
    </g>
    <g>
      <polygon class="cls-4" points="1038.43 138.88 996.62 174.71 953.08 138.88 994.89 103.06 1038.43 138.88"/>
      <polygon class="cls-4" points="1038.43 285.61 996.63 321.44 953.08 285.61 994.89 249.79 1038.43 285.61"/>
      <polygon class="cls-4" points="1038.43 212.24 996.63 248.07 953.08 212.24 994.89 176.42 1038.43 212.24"/>
      <polygon class="cls-4" points="1038.43 358.97 996.63 394.8 953.08 358.97 994.89 323.15 1038.43 358.97"/>
      <polygon class="cls-4" points="1038.43 505.7 996.63 541.53 953.08 505.7 994.89 469.88 1038.43 505.7"/>
      <polygon class="cls-4" points="1038.43 432.34 996.63 468.17 953.08 432.34 994.89 396.51 1038.43 432.34"/>
      <polygon class="cls-4" points="1038.43 579.07 996.63 614.9 953.08 579.07 994.89 543.25 1038.43 579.07"/>
    </g>
    <g>
      <polygon class="cls-2" points="1037.18 153.61 1021.59 138.65 1038.4 124.09 1053.99 139.06 1037.18 153.61"/>
      <polygon class="cls-2" points="1037.74 227.06 1021.59 212.59 1037.83 197.52 1053.99 211.99 1037.74 227.06"/>
      <polygon class="cls-2" points="1037.82 299.47 1022.23 284.51 1039.04 269.95 1054.63 284.92 1037.82 299.47"/>
      <polygon class="cls-2" points="1038.38 372.92 1022.23 358.45 1038.48 343.38 1054.63 357.85 1038.38 372.92"/>
      <polygon class="cls-2" points="1037.42 446.72 1021.26 432.25 1037.52 417.18 1053.67 431.65 1037.42 446.72"/>
      <polygon class="cls-2" points="1037.5 519.13 1021.91 504.17 1038.72 489.61 1054.32 504.58 1037.5 519.13"/>
      <polygon class="cls-2" points="1038.06 592.58 1021.91 578.11 1038.15 563.04 1054.31 577.51 1038.06 592.58"/>
    </g>
    <g>
      <g>
        <polygon class="cls-4" points="950.02 138.88 908.21 174.71 864.67 138.88 906.48 103.06 950.02 138.88"/>
        <polygon class="cls-4" points="950.02 285.61 908.21 321.44 864.67 285.61 906.48 249.79 950.02 285.61"/>
        <polygon class="cls-4" points="950.02 212.24 908.21 248.07 864.67 212.24 906.48 176.42 950.02 212.24"/>
        <polygon class="cls-4" points="950.02 358.97 908.21 394.8 864.67 358.97 906.48 323.15 950.02 358.97"/>
        <polygon class="cls-4" points="950.02 505.7 908.21 541.53 864.67 505.7 906.48 469.88 950.02 505.7"/>
        <polygon class="cls-4" points="950.02 432.34 908.21 468.17 864.67 432.34 906.48 396.51 950.02 432.34"/>
        <polygon class="cls-4" points="950.02 579.07 908.21 614.9 864.67 579.07 906.48 543.25 950.02 579.07"/>
      </g>
      <g>
        <polygon class="cls-4" points="861.61 138.88 819.8 174.71 776.26 138.88 818.07 103.06 861.61 138.88"/>
        <polygon class="cls-4" points="861.61 285.61 819.8 321.44 776.26 285.61 818.07 249.79 861.61 285.61"/>
        <polygon class="cls-4" points="861.61 212.24 819.8 248.07 776.26 212.24 818.07 176.42 861.61 212.24"/>
        <polygon class="cls-4" points="861.61 358.97 819.8 394.8 776.26 358.97 818.07 323.15 861.61 358.97"/>
        <polygon class="cls-4" points="861.61 505.7 819.8 541.53 776.26 505.7 818.07 469.88 861.61 505.7"/>
        <polygon class="cls-4" points="861.61 432.34 819.8 468.17 776.26 432.34 818.07 396.51 861.61 432.34"/>
        <polygon class="cls-4" points="861.61 579.07 819.8 614.9 776.26 579.07 818.07 543.25 861.61 579.07"/>
      </g>
    </g>
    <g>
      <g>
        <polygon class="cls-4" points="773.2 138.88 731.39 174.71 687.85 138.88 729.66 103.06 773.2 138.88"/>
        <polygon class="cls-4" points="773.2 285.61 731.39 321.44 687.85 285.61 729.66 249.79 773.2 285.61"/>
        <polygon class="cls-4" points="773.2 212.24 731.39 248.07 687.85 212.24 729.66 176.42 773.2 212.24"/>
        <polygon class="cls-4" points="773.2 358.97 731.39 394.8 687.85 358.97 729.66 323.15 773.2 358.97"/>
        <polygon class="cls-4" points="773.2 505.7 731.39 541.53 687.85 505.7 729.66 469.88 773.2 505.7"/>
        <polygon class="cls-4" points="773.2 432.34 731.39 468.17 687.85 432.34 729.66 396.51 773.2 432.34"/>
        <polygon class="cls-4" points="773.2 579.07 731.39 614.9 687.85 579.07 729.66 543.25 773.2 579.07"/>
      </g>
      <g>
        <polygon class="cls-4" points="684.79 138.88 642.98 174.71 599.44 138.88 641.24 103.06 684.79 138.88"/>
        <polygon class="cls-4" points="684.79 285.61 642.98 321.44 599.44 285.61 641.25 249.79 684.79 285.61"/>
        <polygon class="cls-4" points="684.79 212.24 642.98 248.07 599.44 212.24 641.25 176.42 684.79 212.24"/>
        <polygon class="cls-4" points="684.79 358.97 642.98 394.8 599.44 358.97 641.25 323.15 684.79 358.97"/>
        <polygon class="cls-4" points="684.79 505.7 642.98 541.53 599.44 505.7 641.25 469.88 684.79 505.7"/>
        <polygon class="cls-4" points="684.79 432.34 642.98 468.17 599.44 432.34 641.25 396.51 684.79 432.34"/>
        <polygon class="cls-4" points="684.79 579.07 642.98 614.9 599.44 579.07 641.25 543.25 684.79 579.07"/>
      </g>
    </g>
    <g>
      <g>
        <polygon class="cls-4" points="596.37 138.88 554.57 174.71 511.02 138.88 552.83 103.06 596.37 138.88"/>
        <polygon class="cls-4" points="596.37 285.61 554.57 321.44 511.02 285.61 552.83 249.79 596.37 285.61"/>
        <polygon class="cls-4" points="596.37 212.24 554.57 248.07 511.02 212.24 552.83 176.42 596.37 212.24"/>
        <polygon class="cls-4" points="596.37 358.97 554.57 394.8 511.02 358.97 552.83 323.15 596.37 358.97"/>
        <polygon class="cls-4" points="596.37 505.7 554.57 541.53 511.02 505.7 552.83 469.88 596.37 505.7"/>
        <polygon class="cls-4" points="596.37 432.34 554.57 468.17 511.02 432.34 552.83 396.51 596.37 432.34"/>
        <polygon class="cls-4" points="596.37 579.07 554.57 614.9 511.02 579.07 552.83 543.25 596.37 579.07"/>
      </g>
      <g>
        <polygon class="cls-4" points="507.96 138.88 466.16 174.71 422.61 138.88 464.43 103.06 507.96 138.88"/>
        <polygon class="cls-4" points="507.96 285.61 466.16 321.44 422.61 285.61 464.43 249.79 507.96 285.61"/>
        <polygon class="cls-4" points="507.96 212.24 466.16 248.07 422.61 212.24 464.43 176.42 507.96 212.24"/>
        <polygon class="cls-4" points="507.96 358.97 466.16 394.8 422.61 358.97 464.43 323.15 507.96 358.97"/>
        <polygon class="cls-4" points="507.96 505.7 466.16 541.53 422.61 505.7 464.43 469.88 507.96 505.7"/>
        <polygon class="cls-4" points="507.96 432.34 466.16 468.17 422.61 432.34 464.43 396.51 507.96 432.34"/>
        <polygon class="cls-4" points="507.96 579.07 466.16 614.9 422.61 579.07 464.43 543.25 507.96 579.07"/>
      </g>
    </g>
    <g>
      <g>
        <polygon class="cls-4" points="419.55 138.88 377.75 174.71 334.2 138.88 376.01 103.06 419.55 138.88"/>
        <polygon class="cls-4" points="419.55 285.61 377.75 321.44 334.2 285.61 376.01 249.79 419.55 285.61"/>
        <polygon class="cls-4" points="419.55 212.24 377.75 248.07 334.2 212.24 376.01 176.42 419.55 212.24"/>
        <polygon class="cls-4" points="419.55 358.97 377.75 394.8 334.2 358.97 376.01 323.15 419.55 358.97"/>
        <polygon class="cls-4" points="419.55 505.7 377.75 541.53 334.2 505.7 376.01 469.88 419.55 505.7"/>
        <polygon class="cls-4" points="419.55 432.34 377.75 468.17 334.2 432.34 376.01 396.51 419.55 432.34"/>
        <polygon class="cls-4" points="419.55 579.07 377.75 614.9 334.2 579.07 376.01 543.25 419.55 579.07"/>
      </g>
      <g>
        <polygon class="cls-4" points="331.14 138.88 289.33 174.71 245.79 138.88 287.6 103.06 331.14 138.88"/>
        <polygon class="cls-4" points="331.14 285.61 289.33 321.44 245.79 285.61 287.6 249.79 331.14 285.61"/>
        <polygon class="cls-4" points="331.14 212.24 289.33 248.07 245.79 212.24 287.6 176.42 331.14 212.24"/>
        <polygon class="cls-4" points="331.14 358.97 289.33 394.8 245.79 358.97 287.6 323.15 331.14 358.97"/>
        <polygon class="cls-4" points="331.14 505.7 289.33 541.53 245.79 505.7 287.6 469.88 331.14 505.7"/>
        <polygon class="cls-4" points="331.14 432.34 289.33 468.17 245.79 432.34 287.6 396.51 331.14 432.34"/>
        <polygon class="cls-4" points="331.14 579.07 289.33 614.9 245.79 579.07 287.6 543.25 331.14 579.07"/>
      </g>
    </g>
    <g>
      <polygon class="cls-4" points="242.72 138.88 200.92 174.71 157.37 138.88 199.18 103.06 242.72 138.88"/>
      <polygon class="cls-4" points="242.72 285.61 200.92 321.44 157.37 285.61 199.18 249.79 242.72 285.61"/>
      <polygon class="cls-4" points="242.72 212.24 200.92 248.07 157.37 212.24 199.18 176.42 242.72 212.24"/>
      <polygon class="cls-4" points="242.72 358.97 200.92 394.8 157.37 358.97 199.18 323.15 242.72 358.97"/>
      <polygon class="cls-4" points="242.72 505.7 200.92 541.53 157.37 505.7 199.18 469.88 242.72 505.7"/>
      <polygon class="cls-4" points="242.72 432.34 200.92 468.17 157.37 432.34 199.18 396.51 242.72 432.34"/>
      <polygon class="cls-4" points="242.72 579.07 200.92 614.9 157.37 579.07 199.18 543.25 242.72 579.07"/>
    </g>
    <g>
      <polygon class="cls-2" points="951.28 154.25 935.68 139.29 952.49 124.73 968.09 139.7 951.28 154.25"/>
      <polygon class="cls-2" points="951.84 227.7 935.68 213.23 951.93 198.16 968.09 212.63 951.84 227.7"/>
      <polygon class="cls-2" points="951.92 300.11 936.32 285.15 953.13 270.59 968.73 285.56 951.92 300.11"/>
      <polygon class="cls-2" points="952.48 373.56 936.32 359.09 952.57 344.02 968.73 358.49 952.48 373.56"/>
      <polygon class="cls-2" points="951.52 447.36 935.36 432.89 951.61 417.82 967.77 432.29 951.52 447.36"/>
      <polygon class="cls-2" points="951.6 519.77 936 504.81 952.81 490.25 968.41 505.22 951.6 519.77"/>
      <polygon class="cls-2" points="952.16 593.22 936 578.75 952.25 563.68 968.41 578.15 952.16 593.22"/>
    </g>
    <g>
      <polygon class="cls-2" points="863.9 154.25 848.3 139.29 865.11 124.73 880.71 139.7 863.9 154.25"/>
      <polygon class="cls-2" points="864.46 227.7 848.3 213.23 864.55 198.16 880.71 212.63 864.46 227.7"/>
      <polygon class="cls-2" points="864.54 300.11 848.94 285.15 865.75 270.59 881.35 285.56 864.54 300.11"/>
      <polygon class="cls-2" points="865.1 373.56 848.95 359.09 865.19 344.02 881.35 358.49 865.1 373.56"/>
      <polygon class="cls-2" points="864.14 447.36 847.98 432.89 864.23 417.82 880.39 432.29 864.14 447.36"/>
      <polygon class="cls-2" points="864.22 519.77 848.62 504.81 865.44 490.25 881.03 505.22 864.22 519.77"/>
      <polygon class="cls-2" points="864.78 593.22 848.62 578.75 864.87 563.68 881.03 578.15 864.78 593.22"/>
    </g>
    <g>
      <polygon class="cls-2" points="772.91 154.25 757.31 139.29 774.12 124.73 789.72 139.7 772.91 154.25"/>
      <polygon class="cls-2" points="773.47 227.7 757.31 213.23 773.56 198.16 789.72 212.63 773.47 227.7"/>
      <polygon class="cls-2" points="773.55 300.11 757.95 285.15 774.76 270.59 790.36 285.56 773.55 300.11"/>
      <polygon class="cls-2" points="774.11 373.56 757.95 359.09 774.2 344.02 790.36 358.49 774.11 373.56"/>
      <polygon class="cls-2" points="773.14 447.36 756.99 432.89 773.24 417.82 789.4 432.29 773.14 447.36"/>
      <polygon class="cls-2" points="773.23 519.77 757.63 504.81 774.44 490.25 790.04 505.22 773.23 519.77"/>
      <polygon class="cls-2" points="773.79 593.22 757.63 578.75 773.88 563.68 790.04 578.15 773.79 593.22"/>
    </g>
    <g>
      <polygon class="cls-2" points="686.44 154.25 670.84 139.29 687.65 124.73 703.25 139.7 686.44 154.25"/>
      <polygon class="cls-2" points="687 227.7 670.84 213.23 687.09 198.16 703.25 212.63 687 227.7"/>
      <polygon class="cls-2" points="687.08 300.11 671.48 285.15 688.29 270.59 703.89 285.56 687.08 300.11"/>
      <polygon class="cls-2" points="687.64 373.56 671.48 359.09 687.73 344.02 703.89 358.49 687.64 373.56"/>
      <polygon class="cls-2" points="686.68 447.36 670.52 432.89 686.77 417.82 702.93 432.29 686.68 447.36"/>
      <polygon class="cls-2" points="686.76 519.77 671.16 504.81 687.97 490.25 703.57 505.22 686.76 519.77"/>
      <polygon class="cls-2" points="687.32 593.22 671.16 578.75 687.41 563.68 703.57 578.15 687.32 593.22"/>
    </g>
    <g>
      <polygon class="cls-2" points="239.84 154.06 224.24 139.1 241.05 124.55 256.65 139.51 239.84 154.06"/>
      <polygon class="cls-2" points="240.4 227.51 224.24 213.04 240.49 197.97 256.65 212.45 240.4 227.51"/>
      <polygon class="cls-2" points="240.48 299.92 224.88 284.96 241.69 270.41 257.29 285.37 240.48 299.92"/>
      <polygon class="cls-2" points="241.04 373.37 224.88 358.9 241.13 343.83 257.29 358.3 241.04 373.37"/>
      <polygon class="cls-2" points="240.08 447.17 223.92 432.7 240.17 417.63 256.33 432.1 240.08 447.17"/>
      <polygon class="cls-2" points="240.16 519.58 224.56 504.62 241.38 490.07 256.97 505.03 240.16 519.58"/>
      <polygon class="cls-2" points="240.72 593.03 224.56 578.56 240.81 563.49 256.97 577.96 240.72 593.03"/>
    </g>
    <g>
      <polygon class="cls-2" points="330.37 153.42 314.77 138.46 331.58 123.91 347.19 138.87 330.37 153.42"/>
      <polygon class="cls-2" points="330.93 226.87 314.77 212.4 331.02 197.33 347.18 211.81 330.93 226.87"/>
      <polygon class="cls-2" points="331.01 299.28 315.41 284.32 332.23 269.77 347.83 284.73 331.01 299.28"/>
      <polygon class="cls-2" points="331.57 372.73 315.41 358.26 331.66 343.2 347.82 357.67 331.57 372.73"/>
      <polygon class="cls-2" points="330.61 446.53 314.45 432.06 330.7 417 346.86 431.47 330.61 446.53"/>
      <polygon class="cls-2" points="330.69 518.95 315.1 503.98 331.91 489.43 347.5 504.39 330.69 518.95"/>
      <polygon class="cls-2" points="331.25 592.39 315.1 577.92 331.35 562.86 347.5 577.33 331.25 592.39"/>
    </g>
    <g>
      <polygon class="cls-2" points="421.84 153.24 406.25 138.28 423.06 123.72 438.66 138.69 421.84 153.24"/>
      <polygon class="cls-2" points="422.4 226.69 406.25 212.22 422.5 197.15 438.65 211.62 422.4 226.69"/>
      <polygon class="cls-2" points="422.48 299.1 406.89 284.13 423.7 269.58 439.3 284.55 422.48 299.1"/>
      <polygon class="cls-2" points="423.04 372.55 406.89 358.08 423.14 343.01 439.29 357.48 423.04 372.55"/>
      <polygon class="cls-2" points="422.08 446.35 405.93 431.88 422.17 416.81 438.33 431.28 422.08 446.35"/>
      <polygon class="cls-2" points="422.16 518.76 406.57 503.79 423.38 489.24 438.98 504.21 422.16 518.76"/>
      <polygon class="cls-2" points="422.72 592.21 406.57 577.74 422.82 562.67 438.97 577.14 422.72 592.21"/>
    </g>
    <g>
      <polygon class="cls-2" points="505.66 153.24 490.07 138.28 506.88 123.72 522.48 138.69 505.66 153.24"/>
      <polygon class="cls-2" points="506.22 226.69 490.07 212.22 506.31 197.15 522.47 211.62 506.22 226.69"/>
      <polygon class="cls-2" points="506.3 299.1 490.71 284.13 507.52 269.58 523.12 284.55 506.3 299.1"/>
      <polygon class="cls-2" points="506.86 372.55 490.71 358.08 506.96 343.01 523.11 357.48 506.86 372.55"/>
      <polygon class="cls-2" points="505.9 446.35 489.75 431.88 505.99 416.81 522.15 431.28 505.9 446.35"/>
      <polygon class="cls-2" points="505.98 518.76 490.39 503.79 507.2 489.24 522.79 504.21 505.98 518.76"/>
      <polygon class="cls-2" points="506.54 592.21 490.39 577.74 506.64 562.67 522.79 577.14 506.54 592.21"/>
    </g>
    <g>
      <polygon class="cls-2" points="595.6 154.25 580.01 139.29 596.82 124.73 612.42 139.7 595.6 154.25"/>
      <polygon class="cls-2" points="596.16 227.7 580.01 213.23 596.26 198.16 612.42 212.63 596.16 227.7"/>
      <polygon class="cls-2" points="596.24 300.11 580.65 285.15 597.46 270.59 613.06 285.56 596.24 300.11"/>
      <polygon class="cls-2" points="596.81 373.56 580.65 359.09 596.9 344.02 613.06 358.49 596.81 373.56"/>
      <polygon class="cls-2" points="595.84 447.36 579.69 432.89 595.94 417.82 612.09 432.29 595.84 447.36"/>
      <polygon class="cls-2" points="595.92 519.77 580.33 504.81 597.14 490.25 612.74 505.22 595.92 519.77"/>
      <polygon class="cls-2" points="596.48 593.22 580.33 578.75 596.58 563.68 612.73 578.15 596.48 593.22"/>
    </g>
    <g>
      <polygon class="cls-2" points="157.67 154.07 142.08 139.1 158.89 124.55 174.49 139.51 157.67 154.07"/>
      <polygon class="cls-2" points="158.23 227.51 142.08 213.04 158.33 197.98 174.48 212.45 158.23 227.51"/>
      <polygon class="cls-2" points="158.31 299.92 142.72 284.96 159.53 270.41 175.13 285.37 158.31 299.92"/>
      <polygon class="cls-2" points="158.87 373.37 142.72 358.9 158.97 343.84 175.13 358.31 158.87 373.37"/>
      <polygon class="cls-2" points="157.91 447.17 141.76 432.7 158.01 417.63 174.17 432.11 157.91 447.17"/>
      <polygon class="cls-2" points="157.99 519.58 142.4 504.62 159.21 490.07 174.81 505.03 157.99 519.58"/>
      <polygon class="cls-2" points="158.55 593.03 142.4 578.56 158.65 563.5 174.81 577.97 158.55 593.03"/>
    </g>
    <g>
      <polygon class="cls-2" points="1123.04 153.05 1107.44 138.09 1124.26 123.54 1139.85 138.5 1123.04 153.05"/>
      <polygon class="cls-2" points="1123.6 226.5 1107.45 212.03 1123.69 196.96 1139.85 211.44 1123.6 226.5"/>
      <polygon class="cls-2" points="1123.68 298.91 1108.09 283.95 1124.9 269.4 1140.49 284.36 1123.68 298.91"/>
      <polygon class="cls-2" points="1124.24 372.36 1108.09 357.89 1124.34 342.82 1140.49 357.3 1124.24 372.36"/>
      <polygon class="cls-2" points="1123.28 446.16 1107.13 431.69 1123.37 416.62 1139.53 431.09 1123.28 446.16"/>
      <polygon class="cls-2" points="1123.36 518.58 1107.76 503.61 1124.57 489.06 1140.17 504.02 1123.36 518.58"/>
      <polygon class="cls-2" points="1123.92 592.02 1107.77 577.55 1124.01 562.48 1140.17 576.95 1123.92 592.02"/>
    </g>
  </g>
  <rect class="cls-6" x="1" y="63.66" width="1215" height="49.96"/>
</svg>