<?xml version="1.0" encoding="utf-8"?>
<!-- Generator: Adobe Illustrator 28.2.0, SVG Export Plug-In . SVG Version: 6.00 Build 0)  -->
<svg version="1.1" id="Layer_1" xmlns="http://www.w3.org/2000/svg" xmlns:xlink="http://www.w3.org/1999/xlink" x="0px" y="0px"
	 viewBox="0 0 1275.7 717" style="enable-background:new 0 0 1275.7 717;" xml:space="preserve">
<style type="text/css">
	.st0{opacity:0.2;}
	.st1{opacity:0.5;fill:#1D1D1B;stroke:#BC2026;stroke-width:0.25;stroke-miterlimit:10;enable-background:new    ;}
	.st2{fill:#040404;}
	.st3{fill:none;stroke:#1D1D1B;stroke-width:1.5;stroke-miterlimit:10;}
	.st4{fill:#1D1D1B;}
</style>
<g class="st0">
	<g>
		<rect x="0.5" y="71.2" class="st1" width="1273.6" height="5.4"/>
		<rect x="0.5" y="80.7" class="st1" width="1273.6" height="15.6"/>
		<rect x="0.5" y="101.3" class="st1" width="1273.6" height="5.4"/>
	</g>
	<g>
		<rect x="96.5" y="0.1" class="st1" width="6.8" height="715.8"/>
		<rect x="108.4" y="0.1" class="st1" width="19.8" height="715.8"/>
		<rect x="134.7" y="0.1" class="st1" width="6.8" height="715.8"/>
	</g>
	<g>
		<rect x="1141" y="1.1" class="st1" width="6.8" height="715.8"/>
		<rect x="1152.9" y="1.1" class="st1" width="19.8" height="715.8"/>
		<rect x="1179.2" y="1.1" class="st1" width="6.8" height="715.8"/>
	</g>
	<g>
		<rect x="0.5" y="611.9" class="st1" width="1273.6" height="5.4"/>
		<rect x="0.5" y="621.3" class="st1" width="1273.6" height="15.6"/>
		<rect x="0.5" y="642" class="st1" width="1273.6" height="5.4"/>
	</g>
	<g>
		<g>
			<path class="st2" d="M58.6,581.1c0,0,23.2,3.1,24.4,18.8c0,0-2.7,12.7,15.9,12.8c0,0-24.4-2.2-27-13.3
				C71.9,599.3,79,589.3,58.6,581.1L58.6,581.1z"/>
			<path class="st2" d="M58.6,581.1c0,0,23.2-3.1,24.4-18.8c0,0-2.7-12.7,15.9-12.8c0,0-24.4,2.2-27,13.3
				C71.9,562.9,79,572.9,58.6,581.1L58.6,581.1z"/>
		</g>
		<g>
			<path class="st2" d="M31.2,581.1c0,0,23.2,3.1,24.4,18.8c0,0-2.7,12.7,15.9,12.8c0,0-24.4-2.2-27-13.3
				C44.5,599.3,51.6,589.3,31.2,581.1L31.2,581.1z"/>
			<path class="st2" d="M31.2,581.1c0,0,23.2-3.1,24.4-18.8c0,0-2.7-12.7,15.9-12.8c0,0-24.4,2.2-27,13.3
				C44.5,562.9,51.6,572.9,31.2,581.1L31.2,581.1z"/>
		</g>
		<g>
			<path class="st2" d="M3.8,581.1c0,0,23.2,3.1,24.4,18.8c0,0-2.7,12.7,15.9,12.8c0,0-24.4-2.2-27-13.3
				C17.1,599.3,24.2,589.3,3.8,581.1z"/>
			<path class="st2" d="M3.8,581.1c0,0,23.2-3.1,24.4-18.8c0,0-2.7-12.7,15.9-12.8c0,0-24.4,2.2-27,13.3
				C17.1,562.9,24.2,572.9,3.8,581.1z"/>
		</g>
	</g>
	<g>
		<g>
			<path class="st2" d="M58.6,518c0,0,23.2,3.1,24.4,18.8c0,0-2.7,12.7,15.9,12.8c0,0-24.4-2.2-27-13.3
				C71.9,536.2,79,526.2,58.6,518L58.6,518z"/>
			<path class="st2" d="M58.6,518c0,0,23.2-3.1,24.4-18.8c0,0-2.7-12.7,15.9-12.8c0,0-24.4,2.2-27,13.3
				C71.9,499.8,79,509.8,58.6,518L58.6,518z"/>
		</g>
		<g>
			<path class="st2" d="M31.2,518c0,0,23.2,3.1,24.4,18.8c0,0-2.7,12.7,15.9,12.8c0,0-24.4-2.2-27-13.3
				C44.5,536.2,51.6,526.2,31.2,518L31.2,518z"/>
			<path class="st2" d="M31.2,518c0,0,23.2-3.1,24.4-18.8c0,0-2.7-12.7,15.9-12.8c0,0-24.4,2.2-27,13.3
				C44.5,499.8,51.6,509.8,31.2,518L31.2,518z"/>
		</g>
		<g>
			<path class="st2" d="M3.8,518c0,0,23.2,3.1,24.4,18.8c0,0-2.7,12.7,15.9,12.8c0,0-24.4-2.2-27-13.3
				C17.1,536.2,24.2,526.2,3.8,518z"/>
			<path class="st2" d="M3.8,518c0,0,23.2-3.1,24.4-18.8c0,0-2.7-12.7,15.9-12.8c0,0-24.4,2.2-27,13.3
				C17.1,499.8,24.2,509.8,3.8,518z"/>
		</g>
	</g>
	<g>
		<g>
			<path class="st2" d="M58.6,454.6c0,0,23.2,3.1,24.4,18.8c0,0-2.7,12.7,15.9,12.8c0,0-24.4-2.2-27-13.3
				C71.9,472.8,79,462.8,58.6,454.6L58.6,454.6z"/>
			<path class="st2" d="M58.6,454.5c0,0,23.2-3.1,24.4-18.8c0,0-2.7-12.7,15.9-12.8c0,0-24.4,2.2-27,13.3
				C71.9,436.3,79,446.3,58.6,454.5L58.6,454.5z"/>
		</g>
		<g>
			<path class="st2" d="M31.2,454.6c0,0,23.2,3.1,24.4,18.8c0,0-2.7,12.7,15.9,12.8c0,0-24.4-2.2-27-13.3
				C44.5,472.8,51.6,462.8,31.2,454.6L31.2,454.6z"/>
			<path class="st2" d="M31.2,454.5c0,0,23.2-3.1,24.4-18.8c0,0-2.7-12.7,15.9-12.8c0,0-24.4,2.2-27,13.3
				C44.5,436.3,51.6,446.3,31.2,454.5L31.2,454.5z"/>
		</g>
		<g>
			<path class="st2" d="M3.8,454.6c0,0,23.2,3.1,24.4,18.8c0,0-2.7,12.7,15.9,12.8c0,0-24.4-2.2-27-13.3
				C17.1,472.8,24.2,462.8,3.8,454.6z"/>
			<path class="st2" d="M3.8,454.5c0,0,23.2-3.1,24.4-18.8c0,0-2.7-12.7,15.9-12.8c0,0-24.4,2.2-27,13.3
				C17.1,436.3,24.2,446.3,3.8,454.5z"/>
		</g>
	</g>
	<g>
		<g>
			<path class="st2" d="M58.6,391.8c0,0,23.2,3.1,24.4,18.8c0,0-2.7,12.7,15.9,12.8c0,0-24.4-2.2-27-13.3
				C71.9,410,79,400,58.6,391.8L58.6,391.8z"/>
			<path class="st2" d="M58.6,391.8c0,0,23.2-3.1,24.4-18.8c0,0-2.7-12.7,15.9-12.8c0,0-24.4,2.2-27,13.3
				C71.9,373.5,79,383.5,58.6,391.8L58.6,391.8z"/>
		</g>
		<g>
			<path class="st2" d="M31.2,391.8c0,0,23.2,3.1,24.4,18.8c0,0-2.7,12.7,15.9,12.8c0,0-24.4-2.2-27-13.3
				C44.5,410,51.6,400,31.2,391.8z"/>
			<path class="st2" d="M31.2,391.8c0,0,23.2-3.1,24.4-18.8c0,0-2.7-12.7,15.9-12.8c0,0-24.4,2.2-27,13.3
				C44.5,373.5,51.6,383.5,31.2,391.8z"/>
		</g>
		<g>
			<path class="st2" d="M3.8,391.8c0,0,23.2,3.1,24.4,18.8c0,0-2.7,12.7,15.9,12.8c0,0-24.4-2.2-27-13.3
				C17.1,410,24.2,400,3.8,391.8z"/>
			<path class="st2" d="M3.8,391.8c0,0,23.2-3.1,24.4-18.8c0,0-2.7-12.7,15.9-12.8c0,0-24.4,2.2-27,13.3
				C17.1,373.5,24.2,383.5,3.8,391.8z"/>
		</g>
	</g>
	<g>
		<g>
			<path class="st2" d="M58.6,138.3c0,0,23.2,3.1,24.4,18.8c0,0-2.7,12.7,15.9,12.8c0,0-24.4-2.2-27-13.3
				C71.9,156.5,79,146.5,58.6,138.3L58.6,138.3z"/>
			<path class="st2" d="M58.6,138.3c0,0,23.2-3.1,24.4-18.8c0,0-2.7-12.7,15.9-12.8c0,0-24.4,2.2-27,13.3
				C71.9,120.1,79,130.1,58.6,138.3L58.6,138.3z"/>
		</g>
		<g>
			<path class="st2" d="M31.2,138.3c0,0,23.2,3.1,24.4,18.8c0,0-2.7,12.7,15.9,12.8c0,0-24.4-2.2-27-13.3
				C44.5,156.5,51.6,146.5,31.2,138.3L31.2,138.3z"/>
			<path class="st2" d="M31.2,138.3c0,0,23.2-3.1,24.4-18.8c0,0-2.7-12.7,15.9-12.8c0,0-24.4,2.2-27,13.3
				C44.5,120.1,51.6,130.1,31.2,138.3L31.2,138.3z"/>
		</g>
		<g>
			<path class="st2" d="M3.8,138.3c0,0,23.2,3.1,24.4,18.8c0,0-2.7,12.7,15.9,12.8c0,0-24.4-2.2-27-13.3
				C17.1,156.5,24.2,146.5,3.8,138.3z"/>
			<path class="st2" d="M3.8,138.3c0,0,23.2-3.1,24.4-18.8c0,0-2.7-12.7,15.9-12.8c0,0-24.4,2.2-27,13.3
				C17.1,120.1,24.2,130.1,3.8,138.3z"/>
		</g>
	</g>
	<g>
		<g>
			<path class="st2" d="M58.6,201.4c0,0,23.2,3.1,24.4,18.8c0,0-2.7,12.7,15.9,12.8c0,0-24.4-2.2-27-13.3
				C71.9,219.6,79,209.6,58.6,201.4L58.6,201.4z"/>
			<path class="st2" d="M58.6,201.4c0,0,23.2-3.1,24.4-18.8c0,0-2.7-12.7,15.9-12.8c0,0-24.4,2.2-27,13.3
				C71.9,183.2,79,193.2,58.6,201.4L58.6,201.4z"/>
		</g>
		<g>
			<path class="st2" d="M31.2,201.4c0,0,23.2,3.1,24.4,18.8c0,0-2.7,12.7,15.9,12.8c0,0-24.4-2.2-27-13.3
				C44.5,219.6,51.6,209.6,31.2,201.4L31.2,201.4z"/>
			<path class="st2" d="M31.2,201.4c0,0,23.2-3.1,24.4-18.8c0,0-2.7-12.7,15.9-12.8c0,0-24.4,2.2-27,13.3
				C44.5,183.2,51.6,193.2,31.2,201.4L31.2,201.4z"/>
		</g>
		<g>
			<path class="st2" d="M3.8,201.4c0,0,23.2,3.1,24.4,18.8c0,0-2.7,12.7,15.9,12.8c0,0-24.4-2.2-27-13.3
				C17.1,219.6,24.2,209.6,3.8,201.4z"/>
			<path class="st2" d="M3.8,201.4c0,0,23.2-3.1,24.4-18.8c0,0-2.7-12.7,15.9-12.8c0,0-24.4,2.2-27,13.3
				C17.1,183.2,24.2,193.2,3.8,201.4z"/>
		</g>
	</g>
	<g>
		<g>
			<path class="st2" d="M58.6,264.5c0,0,23.2,3.1,24.4,18.8c0,0-2.7,12.7,15.9,12.8c0,0-24.4-2.2-27-13.3
				C71.9,282.8,79,272.8,58.6,264.5L58.6,264.5z"/>
			<path class="st2" d="M58.6,264.5c0,0,23.2-3.1,24.4-18.8c0,0-2.7-12.7,15.9-12.8c0,0-24.4,2.2-27,13.3
				C71.9,246.3,79,256.3,58.6,264.5L58.6,264.5z"/>
		</g>
		<g>
			<path class="st2" d="M31.2,264.5c0,0,23.2,3.1,24.4,18.8c0,0-2.7,12.7,15.9,12.8c0,0-24.4-2.2-27-13.3
				C44.5,282.8,51.6,272.8,31.2,264.5L31.2,264.5z"/>
			<path class="st2" d="M31.2,264.5c0,0,23.2-3.1,24.4-18.8c0,0-2.7-12.7,15.9-12.8c0,0-24.4,2.2-27,13.3
				C44.5,246.3,51.6,256.3,31.2,264.5L31.2,264.5z"/>
		</g>
		<g>
			<path class="st2" d="M3.8,264.5c0,0,23.2,3.1,24.4,18.8c0,0-2.7,12.7,15.9,12.8c0,0-24.4-2.2-27-13.3
				C17.1,282.8,24.2,272.8,3.8,264.5z"/>
			<path class="st2" d="M3.8,264.5c0,0,23.2-3.1,24.4-18.8c0,0-2.7-12.7,15.9-12.8c0,0-24.4,2.2-27,13.3
				C17.1,246.3,24.2,256.3,3.8,264.5z"/>
		</g>
	</g>
	<g>
		<g>
			<path class="st2" d="M58.6,328.3c0,0,23.2,3.1,24.4,18.8c0,0-2.7,12.7,15.9,12.8c0,0-24.4-2.2-27-13.3
				C71.9,346.5,79,336.5,58.6,328.3L58.6,328.3z"/>
			<path class="st2" d="M58.6,328.3c0,0,23.2-3.1,24.4-18.8c0,0-2.7-12.7,15.9-12.8c0,0-24.4,2.2-27,13.3
				C71.9,310.1,79,320.1,58.6,328.3L58.6,328.3z"/>
		</g>
		<g>
			<path class="st2" d="M31.2,328.3c0,0,23.2,3.1,24.4,18.8c0,0-2.7,12.7,15.9,12.8c0,0-24.4-2.2-27-13.3
				C44.5,346.5,51.6,336.5,31.2,328.3z"/>
			<path class="st2" d="M31.2,328.3c0,0,23.2-3.1,24.4-18.8c0,0-2.7-12.7,15.9-12.8c0,0-24.4,2.2-27,13.3
				C44.5,310.1,51.6,320.1,31.2,328.3z"/>
		</g>
		<g>
			<path class="st2" d="M3.8,328.3c0,0,23.2,3.1,24.4,18.8c0,0-2.7,12.7,15.9,12.8c0,0-24.4-2.2-27-13.3
				C17.1,346.5,24.2,336.5,3.8,328.3z"/>
			<path class="st2" d="M3.8,328.3c0,0,23.2-3.1,24.4-18.8c0,0-2.7-12.7,15.9-12.8c0,0-24.4,2.2-27,13.3
				C17.1,310.1,24.2,320.1,3.8,328.3z"/>
		</g>
	</g>
	<g>
		<g>
			<path class="st2" d="M1235.5,580.6c0,0,23.2,3.1,24.4,18.8c0,0-2.7,12.7,15.9,12.8c0,0-24.4-2.2-27-13.3
				C1248.7,598.8,1255.8,588.8,1235.5,580.6z"/>
			<path class="st2" d="M1235.5,580.6c0,0,23.2-3.1,24.4-18.8c0,0-2.7-12.7,15.9-12.8c0,0-24.4,2.2-27,13.3
				C1248.7,562.4,1255.8,572.4,1235.5,580.6z"/>
		</g>
		<g>
			<path class="st2" d="M1208.1,580.6c0,0,23.2,3.1,24.4,18.8c0,0-2.7,12.7,15.9,12.8c0,0-24.4-2.2-27-13.3
				C1221.3,598.8,1228.4,588.8,1208.1,580.6L1208.1,580.6z"/>
			<path class="st2" d="M1208.1,580.6c0,0,23.2-3.1,24.4-18.8c0,0-2.7-12.7,15.9-12.8c0,0-24.4,2.2-27,13.3
				C1221.3,562.4,1228.4,572.4,1208.1,580.6L1208.1,580.6z"/>
		</g>
		<g>
			<path class="st2" d="M1180.7,580.6c0,0,23.2,3.1,24.4,18.8c0,0-2.7,12.7,15.9,12.8c0,0-24.4-2.2-27-13.3
				C1193.9,598.8,1201,588.8,1180.7,580.6z"/>
			<path class="st2" d="M1180.7,580.6c0,0,23.2-3.1,24.4-18.8c0,0-2.7-12.7,15.9-12.8c0,0-24.4,2.2-27,13.3
				C1193.9,562.4,1201,572.4,1180.7,580.6z"/>
		</g>
	</g>
	<g>
		<g>
			<path class="st2" d="M1235.5,517.5c0,0,23.2,3.1,24.4,18.8c0,0-2.7,12.7,15.9,12.8c0,0-24.4-2.2-27-13.3
				C1248.7,535.8,1255.8,525.8,1235.5,517.5z"/>
			<path class="st2" d="M1235.5,517.5c0,0,23.2-3.1,24.4-18.8c0,0-2.7-12.7,15.9-12.8c0,0-24.4,2.2-27,13.3
				C1248.7,499.3,1255.8,509.3,1235.5,517.5z"/>
		</g>
		<g>
			<path class="st2" d="M1208.1,517.5c0,0,23.2,3.1,24.4,18.8c0,0-2.7,12.7,15.9,12.8c0,0-24.4-2.2-27-13.3
				C1221.3,535.8,1228.4,525.8,1208.1,517.5L1208.1,517.5z"/>
			<path class="st2" d="M1208.1,517.5c0,0,23.2-3.1,24.4-18.8c0,0-2.7-12.7,15.9-12.8c0,0-24.4,2.2-27,13.3
				C1221.3,499.3,1228.4,509.3,1208.1,517.5L1208.1,517.5z"/>
		</g>
		<g>
			<path class="st2" d="M1180.7,517.5c0,0,23.2,3.1,24.4,18.8c0,0-2.7,12.7,15.9,12.8c0,0-24.4-2.2-27-13.3
				C1193.9,535.8,1201,525.8,1180.7,517.5z"/>
			<path class="st2" d="M1180.7,517.5c0,0,23.2-3.1,24.4-18.8c0,0-2.7-12.7,15.9-12.8c0,0-24.4,2.2-27,13.3
				C1193.9,499.3,1201,509.3,1180.7,517.5z"/>
		</g>
	</g>
	<g>
		<g>
			<path class="st2" d="M1235.5,454.1c0,0,23.2,3.1,24.4,18.8c0,0-2.7,12.7,15.9,12.8c0,0-24.4-2.2-27-13.3
				C1248.7,472.3,1255.8,462.3,1235.5,454.1z"/>
			<path class="st2" d="M1235.5,454.1c0,0,23.2-3.1,24.4-18.8c0,0-2.7-12.7,15.9-12.8c0,0-24.4,2.2-27,13.3
				C1248.7,435.9,1255.8,445.9,1235.5,454.1z"/>
		</g>
		<g>
			<path class="st2" d="M1208.1,454.1c0,0,23.2,3.1,24.4,18.8c0,0-2.7,12.7,15.9,12.8c0,0-24.4-2.2-27-13.3
				C1221.3,472.3,1228.4,462.3,1208.1,454.1L1208.1,454.1z"/>
			<path class="st2" d="M1208.1,454.1c0,0,23.2-3.1,24.4-18.8c0,0-2.7-12.7,15.9-12.8c0,0-24.4,2.2-27,13.3
				C1221.3,435.9,1228.4,445.9,1208.1,454.1L1208.1,454.1z"/>
		</g>
		<g>
			<path class="st2" d="M1180.7,454.1c0,0,23.2,3.1,24.4,18.8c0,0-2.7,12.7,15.9,12.8c0,0-24.4-2.2-27-13.3
				C1193.9,472.3,1201,462.3,1180.7,454.1z"/>
			<path class="st2" d="M1180.7,454.1c0,0,23.2-3.1,24.4-18.8c0,0-2.7-12.7,15.9-12.8c0,0-24.4,2.2-27,13.3
				C1193.9,435.9,1201,445.9,1180.7,454.1z"/>
		</g>
	</g>
	<g>
		<g>
			<path class="st2" d="M1235.5,391.3c0,0,23.2,3.1,24.4,18.8c0,0-2.7,12.7,15.9,12.8c0,0-24.4-2.2-27-13.3
				C1248.7,409.5,1255.8,399.5,1235.5,391.3z"/>
			<path class="st2" d="M1235.5,391.3c0,0,23.2-3.1,24.4-18.8c0,0-2.7-12.7,15.9-12.8c0,0-24.4,2.2-27,13.3
				C1248.7,373,1255.8,383.1,1235.5,391.3z"/>
		</g>
		<g>
			<path class="st2" d="M1208.1,391.3c0,0,23.2,3.1,24.4,18.8c0,0-2.7,12.7,15.9,12.8c0,0-24.4-2.2-27-13.3
				C1221.3,409.5,1228.4,399.5,1208.1,391.3z"/>
			<path class="st2" d="M1208.1,391.3c0,0,23.2-3.1,24.4-18.8c0,0-2.7-12.7,15.9-12.8c0,0-24.4,2.2-27,13.3
				C1221.3,373,1228.4,383.1,1208.1,391.3z"/>
		</g>
		<g>
			<path class="st2" d="M1180.7,391.3c0,0,23.2,3.1,24.4,18.8c0,0-2.7,12.7,15.9,12.8c0,0-24.4-2.2-27-13.3
				C1193.9,409.5,1201,399.5,1180.7,391.3z"/>
			<path class="st2" d="M1180.7,391.3c0,0,23.2-3.1,24.4-18.8c0,0-2.7-12.7,15.9-12.8c0,0-24.4,2.2-27,13.3
				C1193.9,373,1201,383.1,1180.7,391.3z"/>
		</g>
	</g>
	<g>
		<g>
			<path class="st2" d="M1235.5,137.8c0,0,23.2,3.1,24.4,18.8c0,0-2.7,12.7,15.9,12.8c0,0-24.4-2.2-27-13.3
				C1248.7,156,1255.8,146,1235.5,137.8z"/>
			<path class="st2" d="M1235.5,137.8c0,0,23.2-3.1,24.4-18.8c0,0-2.7-12.7,15.9-12.8c0,0-24.4,2.2-27,13.3
				C1248.7,119.6,1255.8,129.6,1235.5,137.8z"/>
		</g>
		<g>
			<path class="st2" d="M1208.1,137.8c0,0,23.2,3.1,24.4,18.8c0,0-2.7,12.7,15.9,12.8c0,0-24.4-2.2-27-13.3
				C1221.3,156,1228.4,146,1208.1,137.8L1208.1,137.8z"/>
			<path class="st2" d="M1208.1,137.8c0,0,23.2-3.1,24.4-18.8c0,0-2.7-12.7,15.9-12.8c0,0-24.4,2.2-27,13.3
				C1221.3,119.6,1228.4,129.6,1208.1,137.8L1208.1,137.8z"/>
		</g>
		<g>
			<path class="st2" d="M1180.7,137.8c0,0,23.2,3.1,24.4,18.8c0,0-2.7,12.7,15.9,12.8c0,0-24.4-2.2-27-13.3
				C1193.9,156,1201,146,1180.7,137.8z"/>
			<path class="st2" d="M1180.7,137.8c0,0,23.2-3.1,24.4-18.8c0,0-2.7-12.7,15.9-12.8c0,0-24.4,2.2-27,13.3
				C1193.9,119.6,1201,129.6,1180.7,137.8z"/>
		</g>
	</g>
	<g>
		<g>
			<path class="st2" d="M1235.5,200.9c0,0,23.2,3.1,24.4,18.8c0,0-2.7,12.7,15.9,12.8c0,0-24.4-2.2-27-13.3
				C1248.7,219.1,1255.8,209.1,1235.5,200.9z"/>
			<path class="st2" d="M1235.5,200.9c0,0,23.2-3.1,24.4-18.8c0,0-2.7-12.7,15.9-12.8c0,0-24.4,2.2-27,13.3
				C1248.7,182.7,1255.8,192.7,1235.5,200.9z"/>
		</g>
		<g>
			<path class="st2" d="M1208.1,200.9c0,0,23.2,3.1,24.4,18.8c0,0-2.7,12.7,15.9,12.8c0,0-24.4-2.2-27-13.3
				C1221.3,219.1,1228.4,209.1,1208.1,200.9L1208.1,200.9z"/>
			<path class="st2" d="M1208.1,200.9c0,0,23.2-3.1,24.4-18.8c0,0-2.7-12.7,15.9-12.8c0,0-24.4,2.2-27,13.3
				C1221.3,182.7,1228.4,192.7,1208.1,200.9L1208.1,200.9z"/>
		</g>
		<g>
			<path class="st2" d="M1180.7,200.9c0,0,23.2,3.1,24.4,18.8c0,0-2.7,12.7,15.9,12.8c0,0-24.4-2.2-27-13.3
				C1193.9,219.1,1201,209.1,1180.7,200.9z"/>
			<path class="st2" d="M1180.7,200.9c0,0,23.2-3.1,24.4-18.8c0,0-2.7-12.7,15.9-12.8c0,0-24.4,2.2-27,13.3
				C1193.9,182.7,1201,192.7,1180.7,200.9z"/>
		</g>
	</g>
	<g>
		<g>
			<path class="st2" d="M1235.5,264.1c0,0,23.2,3.1,24.4,18.8c0,0-2.7,12.7,15.9,12.8c0,0-24.4-2.2-27-13.3
				C1248.7,282.3,1255.8,272.3,1235.5,264.1z"/>
			<path class="st2" d="M1235.5,264.1c0,0,23.2-3.1,24.4-18.8c0,0-2.7-12.7,15.9-12.8c0,0-24.4,2.2-27,13.3
				C1248.7,245.8,1255.8,255.8,1235.5,264.1z"/>
		</g>
		<g>
			<path class="st2" d="M1208.1,264.1c0,0,23.2,3.1,24.4,18.8c0,0-2.7,12.7,15.9,12.8c0,0-24.4-2.2-27-13.3
				C1221.3,282.3,1228.4,272.3,1208.1,264.1L1208.1,264.1z"/>
			<path class="st2" d="M1208.1,264.1c0,0,23.2-3.1,24.4-18.8c0,0-2.7-12.7,15.9-12.8c0,0-24.4,2.2-27,13.3
				C1221.3,245.8,1228.4,255.8,1208.1,264.1L1208.1,264.1z"/>
		</g>
		<g>
			<path class="st2" d="M1180.7,264.1c0,0,23.2,3.1,24.4,18.8c0,0-2.7,12.7,15.9,12.8c0,0-24.4-2.2-27-13.3
				C1193.9,282.3,1201,272.3,1180.7,264.1z"/>
			<path class="st2" d="M1180.7,264.1c0,0,23.2-3.1,24.4-18.8c0,0-2.7-12.7,15.9-12.8c0,0-24.4,2.2-27,13.3
				C1193.9,245.8,1201,255.8,1180.7,264.1z"/>
		</g>
	</g>
	<g>
		<g>
			<path class="st2" d="M1235.5,327.8c0,0,23.2,3.1,24.4,18.8c0,0-2.7,12.7,15.9,12.8c0,0-24.4-2.2-27-13.3
				C1248.7,346,1255.8,336,1235.5,327.8z"/>
			<path class="st2" d="M1235.5,327.8c0,0,23.2-3.1,24.4-18.8c0,0-2.7-12.7,15.9-12.8c0,0-24.4,2.2-27,13.3
				C1248.7,309.6,1255.8,319.6,1235.5,327.8z"/>
		</g>
		<g>
			<path class="st2" d="M1208.1,327.8c0,0,23.2,3.1,24.4,18.8c0,0-2.7,12.7,15.9,12.8c0,0-24.4-2.2-27-13.3
				C1221.3,346,1228.4,336,1208.1,327.8z"/>
			<path class="st2" d="M1208.1,327.8c0,0,23.2-3.1,24.4-18.8c0,0-2.7-12.7,15.9-12.8c0,0-24.4,2.2-27,13.3
				C1221.3,309.6,1228.4,319.6,1208.1,327.8z"/>
		</g>
		<g>
			<path class="st2" d="M1180.7,327.8c0,0,23.2,3.1,24.4,18.8c0,0-2.7,12.7,15.9,12.8c0,0-24.4-2.2-27-13.3
				C1193.9,346,1201,336,1180.7,327.8z"/>
			<path class="st2" d="M1180.7,327.8c0,0,23.2-3.1,24.4-18.8c0,0-2.7-12.7,15.9-12.8c0,0-24.4,2.2-27,13.3
				C1193.9,309.6,1201,319.6,1180.7,327.8z"/>
		</g>
	</g>
	<g>
		<g>
			<path class="st2" d="M1235.5,679c0,0,23.2,3.1,24.4,18.8c0,0-2.7,12.7,15.9,12.8c0,0-24.4-2.2-27-13.3
				C1248.7,697.2,1255.8,687.2,1235.5,679z"/>
			<path class="st2" d="M1235.5,679c0,0,23.2-3.1,24.4-18.8c0,0-2.7-12.7,15.9-12.8c0,0-24.4,2.2-27,13.3
				C1248.7,660.7,1255.8,670.8,1235.5,679z"/>
		</g>
		<g>
			<path class="st2" d="M1208.1,679c0,0,23.2,3.1,24.4,18.8c0,0-2.7,12.7,15.9,12.8c0,0-24.4-2.2-27-13.3
				C1221.3,697.2,1228.4,687.2,1208.1,679L1208.1,679z"/>
			<path class="st2" d="M1208.1,679c0,0,23.2-3.1,24.4-18.8c0,0-2.7-12.7,15.9-12.8c0,0-24.4,2.2-27,13.3
				C1221.3,660.7,1228.4,670.8,1208.1,679L1208.1,679z"/>
		</g>
		<g>
			<path class="st2" d="M1180.7,679c0,0,23.2,3.1,24.4,18.8c0,0-2.7,12.7,15.9,12.8c0,0-24.4-2.2-27-13.3
				C1193.9,697.2,1201,687.2,1180.7,679z"/>
			<path class="st2" d="M1180.7,679c0,0,23.2-3.1,24.4-18.8c0,0-2.7-12.7,15.9-12.8c0,0-24.4,2.2-27,13.3
				C1193.9,660.7,1201,670.8,1180.7,679z"/>
		</g>
	</g>
	<g>
		<g>
			<g>
				<path class="st2" d="M1099.7,680.4c0,0,23.2,3.1,24.4,18.8c0,0-2.7,12.7,15.9,12.8c0,0-24.4-2.2-27-13.3
					C1113,698.6,1120.1,688.6,1099.7,680.4L1099.7,680.4z"/>
				<path class="st2" d="M1099.7,680.4c0,0,23.2-3.1,24.4-18.8c0,0-2.7-12.7,15.9-12.8c0,0-24.4,2.2-27,13.3
					C1113,662.2,1120.1,672.2,1099.7,680.4L1099.7,680.4z"/>
			</g>
			<g>
				<path class="st2" d="M1072.3,680.4c0,0,23.2,3.1,24.4,18.8c0,0-2.7,12.7,15.9,12.8c0,0-24.4-2.2-27-13.3
					C1085.6,698.6,1092.7,688.6,1072.3,680.4L1072.3,680.4z"/>
				<path class="st2" d="M1072.3,680.4c0,0,23.2-3.1,24.4-18.8c0,0-2.7-12.7,15.9-12.8c0,0-24.4,2.2-27,13.3
					C1085.6,662.2,1092.7,672.2,1072.3,680.4L1072.3,680.4z"/>
			</g>
			<g>
				<path class="st2" d="M1044.9,680.4c0,0,23.2,3.1,24.4,18.8c0,0-2.7,12.7,15.9,12.8c0,0-24.4-2.2-27-13.3
					C1058.2,698.6,1065.3,688.6,1044.9,680.4z"/>
				<path class="st2" d="M1044.9,680.4c0,0,23.2-3.1,24.4-18.8c0,0-2.7-12.7,15.9-12.8c0,0-24.4,2.2-27,13.3
					C1058.2,662.2,1065.3,672.2,1044.9,680.4z"/>
			</g>
		</g>
		<g>
			<g>
				<path class="st2" d="M1017.5,680.4c0,0,23.2,3.1,24.4,18.8c0,0-2.7,12.7,15.9,12.8c0,0-24.4-2.2-27-13.3
					C1030.8,698.7,1037.9,688.6,1017.5,680.4z"/>
				<path class="st2" d="M1017.5,680.4c0,0,23.2-3.1,24.4-18.8c0,0-2.7-12.7,15.9-12.8c0,0-24.4,2.2-27,13.3
					C1030.8,662.2,1037.9,672.2,1017.5,680.4z"/>
			</g>
			<g>
				<path class="st2" d="M990.1,680.4c0,0,23.2,3.1,24.4,18.8c0,0-2.7,12.7,15.9,12.8c0,0-24.4-2.2-27-13.3
					C1003.4,698.7,1010.5,688.6,990.1,680.4z"/>
				<path class="st2" d="M990.1,680.4c0,0,23.2-3.1,24.4-18.8c0,0-2.7-12.7,15.9-12.8c0,0-24.4,2.2-27,13.3
					C1003.4,662.2,1010.5,672.2,990.1,680.4z"/>
			</g>
			<g>
				<path class="st2" d="M962.7,680.4c0,0,23.2,3.1,24.4,18.8c0,0-2.7,12.7,15.9,12.8c0,0-24.4-2.2-27-13.3
					C976,698.7,983.1,688.6,962.7,680.4L962.7,680.4z"/>
				<path class="st2" d="M962.7,680.4c0,0,23.2-3.1,24.4-18.8c0,0-2.7-12.7,15.9-12.8c0,0-24.4,2.2-27,13.3
					C976,662.2,983.1,672.2,962.7,680.4L962.7,680.4z"/>
			</g>
		</g>
		<g>
			<g>
				<path class="st2" d="M935.3,679c0,0,23.2,3.1,24.4,18.8c0,0-2.7,12.7,15.9,12.8c0,0-24.4-2.2-27-13.3
					C948.6,697.2,955.7,687.2,935.3,679z"/>
				<path class="st2" d="M935.3,679c0,0,23.2-3.1,24.4-18.8c0,0-2.7-12.7,15.9-12.8c0,0-24.4,2.2-27,13.3
					C948.6,660.7,955.7,670.7,935.3,679z"/>
			</g>
			<g>
				<path class="st2" d="M908,679c0,0,23.2,3.1,24.4,18.8c0,0-2.7,12.7,15.9,12.8c0,0-24.4-2.2-27-13.3
					C921.2,697.2,928.3,687.2,908,679z"/>
				<path class="st2" d="M908,679c0,0,23.2-3.1,24.4-18.8c0,0-2.7-12.7,15.9-12.8c0,0-24.4,2.2-27,13.3
					C921.2,660.7,928.3,670.7,908,679z"/>
			</g>
			<g>
				<path class="st2" d="M880.6,679c0,0,23.2,3.1,24.4,18.8c0,0-2.7,12.7,15.9,12.8c0,0-24.4-2.2-27-13.3
					C893.8,697.2,900.9,687.2,880.6,679z"/>
				<path class="st2" d="M880.6,679c0,0,23.2-3.1,24.4-18.8c0,0-2.7-12.7,15.9-12.8c0,0-24.4,2.2-27,13.3
					C893.8,660.7,900.9,670.7,880.6,679z"/>
			</g>
		</g>
		<g>
			<g>
				<path class="st2" d="M853.2,679c0,0,23.2,3.1,24.4,18.8c0,0-2.7,12.7,15.9,12.8c0,0-24.4-2.2-27-13.3
					C866.4,697.2,873.5,687.2,853.2,679z"/>
				<path class="st2" d="M853.2,679c0,0,23.2-3.1,24.4-18.8c0,0-2.7-12.7,15.9-12.8c0,0-24.4,2.2-27,13.3
					C866.4,660.7,873.5,670.8,853.2,679z"/>
			</g>
			<g>
				<path class="st2" d="M825.8,679c0,0,23.2,3.1,24.4,18.8c0,0-2.7,12.7,15.9,12.8c0,0-24.4-2.2-27-13.3
					C839,697.2,846.1,687.2,825.8,679z"/>
				<path class="st2" d="M825.8,679c0,0,23.2-3.1,24.4-18.8c0,0-2.7-12.7,15.9-12.8c0,0-24.4,2.2-27,13.3
					C839,660.7,846.1,670.8,825.8,679z"/>
			</g>
			<g>
				<path class="st2" d="M798.4,679c0,0,23.2,3.1,24.4,18.8c0,0-2.7,12.7,15.9,12.8c0,0-24.4-2.2-27-13.3
					C811.7,697.2,818.8,687.2,798.4,679L798.4,679z"/>
				<path class="st2" d="M798.4,679c0,0,23.2-3.1,24.4-18.8c0,0-2.7-12.7,15.9-12.8c0,0-24.4,2.2-27,13.3
					C811.7,660.7,818.8,670.8,798.4,679L798.4,679z"/>
			</g>
		</g>
		<g>
			<g>
				<path class="st2" d="M771,679.7c0,0,23.2,3.1,24.4,18.8c0,0-2.7,12.7,15.9,12.8c0,0-24.4-2.2-27-13.3
					C784.3,697.9,791.4,687.9,771,679.7z"/>
				<path class="st2" d="M771,679.7c0,0,23.2-3.1,24.4-18.8c0,0-2.7-12.7,15.9-12.8c0,0-24.4,2.2-27,13.3
					C784.3,661.5,791.4,671.5,771,679.7z"/>
			</g>
			<g>
				<path class="st2" d="M743.6,679.7c0,0,23.2,3.1,24.4,18.8c0,0-2.7,12.7,15.9,12.8c0,0-24.4-2.2-27-13.3
					C756.9,697.9,764,687.9,743.6,679.7z"/>
				<path class="st2" d="M743.6,679.7c0,0,23.2-3.1,24.4-18.8c0,0-2.7-12.7,15.9-12.8c0,0-24.4,2.2-27,13.3
					C756.9,661.5,764,671.5,743.6,679.7z"/>
			</g>
			<g>
				<path class="st2" d="M716.2,679.7c0,0,23.2,3.1,24.4,18.8c0,0-2.7,12.7,15.9,12.8c0,0-24.4-2.2-27-13.3
					C729.5,697.9,736.6,687.9,716.2,679.7z"/>
				<path class="st2" d="M716.2,679.7c0,0,23.2-3.1,24.4-18.8c0,0-2.7-12.7,15.9-12.8c0,0-24.4,2.2-27,13.3
					C729.5,661.5,736.6,671.5,716.2,679.7z"/>
			</g>
		</g>
		<g>
			<g>
				<path class="st2" d="M688.8,679.7c0,0,23.2,3.1,24.4,18.8c0,0-2.7,12.7,15.9,12.8c0,0-24.4-2.2-27-13.3
					C702.1,697.9,709.2,687.9,688.8,679.7z"/>
				<path class="st2" d="M688.8,679.7c0,0,23.2-3.1,24.4-18.8c0,0-2.7-12.7,15.9-12.8c0,0-24.4,2.2-27,13.3
					C702.1,661.5,709.2,671.5,688.8,679.7z"/>
			</g>
			<g>
				<path class="st2" d="M661.5,679.7c0,0,23.2,3.1,24.4,18.8c0,0-2.7,12.7,15.9,12.8c0,0-24.4-2.2-27-13.3
					C674.7,697.9,681.8,687.9,661.5,679.7z"/>
				<path class="st2" d="M661.5,679.7c0,0,23.2-3.1,24.4-18.8c0,0-2.7-12.7,15.9-12.8c0,0-24.4,2.2-27,13.3
					C674.7,661.5,681.8,671.5,661.5,679.7z"/>
			</g>
			<g>
				<path class="st2" d="M634.1,679.7c0,0,23.2,3.1,24.4,18.8c0,0-2.7,12.7,15.9,12.8c0,0-24.4-2.2-27-13.3
					C647.3,697.9,654.4,687.9,634.1,679.7z"/>
				<path class="st2" d="M634.1,679.7c0,0,23.2-3.1,24.4-18.8c0,0-2.7-12.7,15.9-12.8c0,0-24.4,2.2-27,13.3
					C647.3,661.5,654.4,671.5,634.1,679.7z"/>
			</g>
		</g>
		<g>
			<g>
				<path class="st2" d="M606.7,678.2c0,0,23.2,3.1,24.4,18.8c0,0-2.7,12.7,15.9,12.8c0,0-24.4-2.2-27-13.3
					C619.9,696.4,627,686.4,606.7,678.2z"/>
				<path class="st2" d="M606.7,678.2c0,0,23.2-3.1,24.4-18.8c0,0-2.7-12.7,15.9-12.8c0,0-24.4,2.2-27,13.3
					C619.9,660,627,670,606.7,678.2z"/>
			</g>
			<g>
				<path class="st2" d="M579.3,678.2c0,0,23.2,3.1,24.4,18.8c0,0-2.7,12.7,15.9,12.8c0,0-24.4-2.2-27-13.3
					C592.5,696.4,599.6,686.4,579.3,678.2L579.3,678.2z"/>
				<path class="st2" d="M579.3,678.2c0,0,23.2-3.1,24.4-18.8c0,0-2.7-12.7,15.9-12.8c0,0-24.4,2.2-27,13.3
					C592.5,660,599.6,670,579.3,678.2L579.3,678.2z"/>
			</g>
			<g>
				<path class="st2" d="M551.9,678.2c0,0,23.2,3.1,24.4,18.8c0,0-2.7,12.7,15.9,12.8c0,0-24.4-2.2-27-13.3
					C565.2,696.4,572.3,686.4,551.9,678.2z"/>
				<path class="st2" d="M551.9,678.2c0,0,23.2-3.1,24.4-18.8c0,0-2.7-12.7,15.9-12.8c0,0-24.4,2.2-27,13.3
					C565.2,660,572.3,670,551.9,678.2z"/>
			</g>
		</g>
		<g>
			<g>
				<path class="st2" d="M524.5,678.2c0,0,23.2,3.1,24.4,18.8c0,0-2.7,12.7,15.9,12.8c0,0-24.4-2.2-27-13.3
					C537.8,696.4,544.9,686.4,524.5,678.2L524.5,678.2z"/>
				<path class="st2" d="M524.5,678.2c0,0,23.2-3.1,24.4-18.8c0,0-2.7-12.7,15.9-12.8c0,0-24.4,2.2-27,13.3
					C537.8,660,544.9,670,524.5,678.2L524.5,678.2z"/>
			</g>
			<g>
				<path class="st2" d="M497.1,678.2c0,0,23.2,3.1,24.4,18.8c0,0-2.7,12.7,15.9,12.8c0,0-24.4-2.2-27-13.3
					C510.4,696.4,517.5,686.4,497.1,678.2L497.1,678.2z"/>
				<path class="st2" d="M497.1,678.2c0,0,23.2-3.1,24.4-18.8c0,0-2.7-12.7,15.9-12.8c0,0-24.4,2.2-27,13.3
					C510.4,660,517.5,670,497.1,678.2L497.1,678.2z"/>
			</g>
			<g>
				<path class="st2" d="M469.7,678.2c0,0,23.2,3.1,24.4,18.8c0,0-2.7,12.7,15.9,12.8c0,0-24.4-2.2-27-13.3
					C483,696.4,490.1,686.4,469.7,678.2L469.7,678.2z"/>
				<path class="st2" d="M469.7,678.2c0,0,23.2-3.1,24.4-18.8c0,0-2.7-12.7,15.9-12.8c0,0-24.4,2.2-27,13.3
					C483,660,490.1,670,469.7,678.2L469.7,678.2z"/>
			</g>
		</g>
		<g>
			<g>
				<path class="st2" d="M442.4,679.7c0,0,23.2,3.1,24.4,18.8c0,0-2.7,12.7,15.9,12.8c0,0-24.4-2.2-27-13.3
					C455.6,697.9,462.7,687.9,442.4,679.7L442.4,679.7z"/>
				<path class="st2" d="M442.4,679.7c0,0,23.2-3.1,24.4-18.8c0,0-2.7-12.7,15.9-12.8c0,0-24.4,2.2-27,13.3
					C455.6,661.5,462.7,671.5,442.4,679.7L442.4,679.7z"/>
			</g>
			<g>
				<path class="st2" d="M415,679.7c0,0,23.2,3.1,24.4,18.8c0,0-2.7,12.7,15.9,12.8c0,0-24.4-2.2-27-13.3
					C428.2,697.9,435.3,687.9,415,679.7L415,679.7z"/>
				<path class="st2" d="M415,679.7c0,0,23.2-3.1,24.4-18.8c0,0-2.7-12.7,15.9-12.8c0,0-24.4,2.2-27,13.3
					C428.2,661.5,435.3,671.5,415,679.7L415,679.7z"/>
			</g>
			<g>
				<path class="st2" d="M387.6,679.7c0,0,23.2,3.1,24.4,18.8c0,0-2.7,12.7,15.9,12.8c0,0-24.4-2.2-27-13.3
					C400.8,697.9,407.9,687.9,387.6,679.7L387.6,679.7z"/>
				<path class="st2" d="M387.6,679.7c0,0,23.2-3.1,24.4-18.8c0,0-2.7-12.7,15.9-12.8c0,0-24.4,2.2-27,13.3
					C400.8,661.5,407.9,671.5,387.6,679.7L387.6,679.7z"/>
			</g>
		</g>
		<g>
			<g>
				<path class="st2" d="M360.2,679.7c0,0,23.2,3.1,24.4,18.8c0,0-2.7,12.7,15.9,12.8c0,0-24.4-2.2-27-13.3
					C373.4,697.9,380.5,687.9,360.2,679.7z"/>
				<path class="st2" d="M360.2,679.7c0,0,23.2-3.1,24.4-18.8c0,0-2.7-12.7,15.9-12.8c0,0-24.4,2.2-27,13.3
					C373.4,661.5,380.5,671.5,360.2,679.7z"/>
			</g>
			<g>
				<path class="st2" d="M332.8,679.7c0,0,23.2,3.1,24.4,18.8c0,0-2.7,12.7,15.9,12.8c0,0-24.4-2.2-27-13.3
					C346.1,697.9,353.2,687.9,332.8,679.7L332.8,679.7z"/>
				<path class="st2" d="M332.8,679.7c0,0,23.2-3.1,24.4-18.8c0,0-2.7-12.7,15.9-12.8c0,0-24.4,2.2-27,13.3
					C346.1,661.5,353.2,671.5,332.8,679.7L332.8,679.7z"/>
			</g>
			<g>
				<path class="st2" d="M305.4,679.7c0,0,23.2,3.1,24.4,18.8c0,0-2.7,12.7,15.9,12.8c0,0-24.4-2.2-27-13.3
					C318.7,697.9,325.8,687.9,305.4,679.7z"/>
				<path class="st2" d="M305.4,679.7c0,0,23.2-3.1,24.4-18.8c0,0-2.7-12.7,15.9-12.8c0,0-24.4,2.2-27,13.3
					C318.7,661.5,325.8,671.5,305.4,679.7z"/>
			</g>
		</g>
		<g>
			<g>
				<path class="st2" d="M278,678.2c0,0,23.2,3.1,24.4,18.8c0,0-2.7,12.7,15.9,12.8c0,0-24.4-2.2-27-13.3
					C291.3,696.4,298.4,686.4,278,678.2L278,678.2z"/>
				<path class="st2" d="M278,678.2c0,0,23.2-3.1,24.4-18.8c0,0-2.7-12.7,15.9-12.8c0,0-24.4,2.2-27,13.3
					C291.3,660,298.4,670,278,678.2L278,678.2z"/>
			</g>
			<g>
				<path class="st2" d="M250.6,678.2c0,0,23.2,3.1,24.4,18.8c0,0-2.7,12.7,15.9,12.8c0,0-24.4-2.2-27-13.3
					C263.9,696.4,271,686.4,250.6,678.2L250.6,678.2z"/>
				<path class="st2" d="M250.6,678.2c0,0,23.2-3.1,24.4-18.8c0,0-2.7-12.7,15.9-12.8c0,0-24.4,2.2-27,13.3
					C263.9,660,271,670,250.6,678.2L250.6,678.2z"/>
			</g>
			<g>
				<path class="st2" d="M223.2,678.2c0,0,23.2,3.1,24.4,18.8c0,0-2.7,12.7,15.9,12.8c0,0-24.4-2.2-27-13.3
					C236.5,696.4,243.6,686.4,223.2,678.2L223.2,678.2z"/>
				<path class="st2" d="M223.2,678.2c0,0,23.2-3.1,24.4-18.8c0,0-2.7-12.7,15.9-12.8c0,0-24.4,2.2-27,13.3
					C236.5,660,243.6,670,223.2,678.2L223.2,678.2z"/>
			</g>
		</g>
		<g>
			<g>
				<path class="st2" d="M195.8,678.2c0,0,23.2,3.1,24.4,18.8c0,0-2.7,12.7,15.9,12.8c0,0-24.4-2.2-27-13.3
					C209.1,696.4,216.2,686.4,195.8,678.2L195.8,678.2z"/>
				<path class="st2" d="M195.8,678.2c0,0,23.2-3.1,24.4-18.8c0,0-2.7-12.7,15.9-12.8c0,0-24.4,2.2-27,13.3
					C209.1,660,216.2,670,195.8,678.2L195.8,678.2z"/>
			</g>
			<g>
				<path class="st2" d="M168.5,678.2c0,0,23.2,3.1,24.4,18.8c0,0-2.7,12.7,15.9,12.8c0,0-24.4-2.2-27-13.3
					C181.7,696.4,188.8,686.4,168.5,678.2L168.5,678.2z"/>
				<path class="st2" d="M168.5,678.2c0,0,23.2-3.1,24.4-18.8c0,0-2.7-12.7,15.9-12.8c0,0-24.4,2.2-27,13.3
					C181.7,660,188.8,670,168.5,678.2L168.5,678.2z"/>
			</g>
			<g>
				<path class="st2" d="M141.1,678.2c0,0,23.2,3.1,24.4,18.8c0,0-2.7,12.7,15.9,12.8c0,0-24.4-2.2-27-13.3
					C154.3,696.4,161.4,686.4,141.1,678.2L141.1,678.2z"/>
				<path class="st2" d="M141.1,678.2c0,0,23.2-3.1,24.4-18.8c0,0-2.7-12.7,15.9-12.8c0,0-24.4,2.2-27,13.3
					C154.3,660,161.4,670,141.1,678.2L141.1,678.2z"/>
			</g>
		</g>
	</g>
	<g>
		<g>
			<path class="st2" d="M58.6,679.2c0,0,23.2,3.1,24.4,18.8c0,0-2.7,12.7,15.9,12.8c0,0-24.4-2.2-27-13.3
				C71.9,697.5,79,687.5,58.6,679.2L58.6,679.2z"/>
			<path class="st2" d="M58.6,679.2c0,0,23.2-3.1,24.4-18.8c0,0-2.7-12.7,15.9-12.8c0,0-24.4,2.2-27,13.3
				C71.9,661,79,671,58.6,679.2L58.6,679.2z"/>
		</g>
		<g>
			<path class="st2" d="M31.2,679.2c0,0,23.2,3.1,24.4,18.8c0,0-2.7,12.7,15.9,12.8c0,0-24.4-2.2-27-13.3
				C44.5,697.5,51.6,687.5,31.2,679.2L31.2,679.2z"/>
			<path class="st2" d="M31.2,679.2c0,0,23.2-3.1,24.4-18.8c0,0-2.7-12.7,15.9-12.8c0,0-24.4,2.2-27,13.3
				C44.5,661,51.6,671,31.2,679.2L31.2,679.2z"/>
		</g>
		<g>
			<path class="st2" d="M3.8,679.2c0,0,23.2,3.1,24.4,18.8c0,0-2.7,12.7,15.9,12.8c0,0-24.4-2.2-27-13.3
				C17.1,697.5,24.2,687.5,3.8,679.2z"/>
			<path class="st2" d="M3.8,679.2c0,0,23.2-3.1,24.4-18.8c0,0-2.7-12.7,15.9-12.8c0,0-24.4,2.2-27,13.3
				C17.1,661,24.2,671,3.8,679.2z"/>
		</g>
	</g>
	<g>
		<g>
			<g>
				<path class="st2" d="M1099.9,38.3c0,0,23.2,3.1,24.4,18.8c0,0-2.7,12.7,15.9,12.8c0,0-24.4-2.2-27-13.3
					C1113.1,56.5,1120.2,46.5,1099.9,38.3z"/>
				<path class="st2" d="M1099.9,38.3c0,0,23.2-3.1,24.4-18.8c0,0-2.7-12.7,15.9-12.8c0,0-24.4,2.2-27,13.3
					C1113.1,20.1,1120.2,30.1,1099.9,38.3z"/>
			</g>
			<g>
				<path class="st2" d="M1072.5,38.3c0,0,23.2,3.1,24.4,18.8c0,0-2.7,12.7,15.9,12.8c0,0-24.4-2.2-27-13.3
					C1085.7,56.5,1092.8,46.5,1072.5,38.3L1072.5,38.3z"/>
				<path class="st2" d="M1072.5,38.3c0,0,23.2-3.1,24.4-18.8c0,0-2.7-12.7,15.9-12.8c0,0-24.4,2.2-27,13.3
					C1085.7,20.1,1092.8,30.1,1072.5,38.3L1072.5,38.3z"/>
			</g>
			<g>
				<path class="st2" d="M1045.1,38.3c0,0,23.2,3.1,24.4,18.8c0,0-2.7,12.7,15.9,12.8c0,0-24.4-2.2-27-13.3
					C1058.3,56.5,1065.4,46.5,1045.1,38.3L1045.1,38.3z"/>
				<path class="st2" d="M1045.1,38.3c0,0,23.2-3.1,24.4-18.8c0,0-2.7-12.7,15.9-12.8c0,0-24.4,2.2-27,13.3
					C1058.3,20.1,1065.4,30.1,1045.1,38.3L1045.1,38.3z"/>
			</g>
		</g>
		<g>
			<g>
				<path class="st2" d="M1017.7,38.3c0,0,23.2,3.1,24.4,18.8c0,0-2.7,12.7,15.9,12.8c0,0-24.4-2.2-27-13.3
					C1030.9,56.5,1038,46.5,1017.7,38.3L1017.7,38.3z"/>
				<path class="st2" d="M1017.7,38.3c0,0,23.2-3.1,24.4-18.8c0,0-2.7-12.7,15.9-12.8c0,0-24.4,2.2-27,13.3
					C1030.9,20.1,1038,30.1,1017.7,38.3L1017.7,38.3z"/>
			</g>
			<g>
				<path class="st2" d="M990.3,38.3c0,0,23.2,3.1,24.4,18.8c0,0-2.7,12.7,15.9,12.8c0,0-24.4-2.2-27-13.3
					C1003.6,56.5,1010.7,46.5,990.3,38.3L990.3,38.3z"/>
				<path class="st2" d="M990.3,38.3c0,0,23.2-3.1,24.4-18.8c0,0-2.7-12.7,15.9-12.8c0,0-24.4,2.2-27,13.3
					C1003.6,20.1,1010.7,30.1,990.3,38.3L990.3,38.3z"/>
			</g>
			<g>
				<path class="st2" d="M962.9,38.3c0,0,23.2,3.1,24.4,18.8c0,0-2.7,12.7,15.9,12.8c0,0-24.4-2.2-27-13.3
					C976.2,56.5,983.3,46.5,962.9,38.3L962.9,38.3z"/>
				<path class="st2" d="M962.9,38.3c0,0,23.2-3.1,24.4-18.8c0,0-2.7-12.7,15.9-12.8c0,0-24.4,2.2-27,13.3
					C976.2,20.1,983.3,30.1,962.9,38.3L962.9,38.3z"/>
			</g>
		</g>
		<g>
			<g>
				<path class="st2" d="M935.5,36.8c0,0,23.2,3.1,24.4,18.8c0,0-2.7,12.7,15.9,12.8c0,0-24.4-2.2-27-13.3
					C948.8,55.1,955.9,45.1,935.5,36.8z"/>
				<path class="st2" d="M935.5,36.8c0,0,23.2-3.1,24.4-18.8c0,0-2.7-12.7,15.9-12.8c0,0-24.4,2.2-27,13.3
					C948.8,18.6,955.9,28.6,935.5,36.8z"/>
			</g>
			<g>
				<path class="st2" d="M908.1,36.8c0,0,23.2,3.1,24.4,18.8c0,0-2.7,12.7,15.9,12.8c0,0-24.4-2.2-27-13.3
					C921.4,55.1,928.5,45.1,908.1,36.8z"/>
				<path class="st2" d="M908.1,36.8c0,0,23.2-3.1,24.4-18.8c0,0-2.7-12.7,15.9-12.8c0,0-24.4,2.2-27,13.3
					C921.4,18.6,928.5,28.6,908.1,36.8z"/>
			</g>
			<g>
				<path class="st2" d="M880.7,36.8c0,0,23.2,3.1,24.4,18.8c0,0-2.7,12.7,15.9,12.8c0,0-24.4-2.2-27-13.3
					C894,55.1,901.1,45.1,880.7,36.8z"/>
				<path class="st2" d="M880.7,36.8c0,0,23.2-3.1,24.4-18.8c0,0-2.7-12.7,15.9-12.8c0,0-24.4,2.2-27,13.3
					C894,18.6,901.1,28.6,880.7,36.8z"/>
			</g>
		</g>
		<g>
			<g>
				<path class="st2" d="M853.3,36.8c0,0,23.2,3.1,24.4,18.8c0,0-2.7,12.7,15.9,12.8c0,0-24.4-2.2-27-13.3
					C866.6,55.1,873.7,45.1,853.3,36.8z"/>
				<path class="st2" d="M853.3,36.8c0,0,23.2-3.1,24.4-18.8c0,0-2.7-12.7,15.9-12.8c0,0-24.4,2.2-27,13.3
					C866.6,18.6,873.7,28.6,853.3,36.8z"/>
			</g>
			<g>
				<path class="st2" d="M826,36.8c0,0,23.2,3.1,24.4,18.8c0,0-2.7,12.7,15.9,12.8c0,0-24.4-2.2-27-13.3
					C839.2,55.1,846.3,45.1,826,36.8z"/>
				<path class="st2" d="M826,36.8c0,0,23.2-3.1,24.4-18.8c0,0-2.7-12.7,15.9-12.8c0,0-24.4,2.2-27,13.3
					C839.2,18.6,846.3,28.6,826,36.8z"/>
			</g>
			<g>
				<path class="st2" d="M798.6,36.8c0,0,23.2,3.1,24.4,18.8c0,0-2.7,12.7,15.9,12.8c0,0-24.4-2.2-27-13.3
					C811.8,55.1,818.9,45.1,798.6,36.8z"/>
				<path class="st2" d="M798.6,36.8c0,0,23.2-3.1,24.4-18.8c0,0-2.7-12.7,15.9-12.8c0,0-24.4,2.2-27,13.3
					C811.8,18.6,818.9,28.6,798.6,36.8z"/>
			</g>
		</g>
		<g>
			<g>
				<path class="st2" d="M771.2,37.6c0,0,23.2,3.1,24.4,18.8c0,0-2.7,12.7,15.9,12.8c0,0-24.4-2.2-27-13.3
					C784.5,55.8,791.5,45.8,771.2,37.6z"/>
				<path class="st2" d="M771.2,37.6c0,0,23.2-3.1,24.4-18.8c0,0-2.7-12.7,15.9-12.8c0,0-24.4,2.2-27,13.3
					C784.5,19.4,791.5,29.4,771.2,37.6z"/>
			</g>
			<g>
				<path class="st2" d="M743.8,37.6c0,0,23.2,3.1,24.4,18.8c0,0-2.7,12.7,15.9,12.8c0,0-24.4-2.2-27-13.3
					C757.1,55.8,764.2,45.8,743.8,37.6L743.8,37.6z"/>
				<path class="st2" d="M743.8,37.6c0,0,23.2-3.1,24.4-18.8c0,0-2.7-12.7,15.9-12.8c0,0-24.4,2.2-27,13.3
					C757.1,19.4,764.2,29.4,743.8,37.6L743.8,37.6z"/>
			</g>
			<g>
				<path class="st2" d="M716.4,37.6c0,0,23.2,3.1,24.4,18.8c0,0-2.7,12.7,15.9,12.8c0,0-24.4-2.2-27-13.3
					C729.7,55.8,736.8,45.8,716.4,37.6z"/>
				<path class="st2" d="M716.4,37.6c0,0,23.2-3.1,24.4-18.8c0,0-2.7-12.7,15.9-12.8c0,0-24.4,2.2-27,13.3
					C729.7,19.4,736.8,29.4,716.4,37.6z"/>
			</g>
		</g>
		<g>
			<g>
				<path class="st2" d="M689,37.6c0,0,23.2,3.1,24.4,18.8c0,0-2.7,12.7,15.9,12.8c0,0-24.4-2.2-27-13.3
					C702.3,55.8,709.4,45.8,689,37.6L689,37.6z"/>
				<path class="st2" d="M689,37.6c0,0,23.2-3.1,24.4-18.8c0,0-2.7-12.7,15.9-12.8c0,0-24.4,2.2-27,13.3
					C702.3,19.4,709.4,29.4,689,37.6L689,37.6z"/>
			</g>
			<g>
				<path class="st2" d="M661.6,37.6c0,0,23.2,3.1,24.4,18.8c0,0-2.7,12.7,15.9,12.8c0,0-24.4-2.2-27-13.3
					C674.9,55.8,682,45.8,661.6,37.6L661.6,37.6z"/>
				<path class="st2" d="M661.6,37.6c0,0,23.2-3.1,24.4-18.8c0,0-2.7-12.7,15.9-12.8c0,0-24.4,2.2-27,13.3
					C674.9,19.4,682,29.4,661.6,37.6L661.6,37.6z"/>
			</g>
			<g>
				<path class="st2" d="M634.2,37.6c0,0,23.2,3.1,24.4,18.8c0,0-2.7,12.7,15.9,12.8c0,0-24.4-2.2-27-13.3
					C647.5,55.8,654.6,45.8,634.2,37.6z"/>
				<path class="st2" d="M634.2,37.6c0,0,23.2-3.1,24.4-18.8c0,0-2.7-12.7,15.9-12.8c0,0-24.4,2.2-27,13.3
					C647.5,19.4,654.6,29.4,634.2,37.6z"/>
			</g>
		</g>
		<g>
			<g>
				<path class="st2" d="M606.8,36.1c0,0,23.2,3.1,24.4,18.8c0,0-2.7,12.7,15.9,12.8c0,0-24.4-2.2-27-13.3
					C620.1,54.3,627.2,44.3,606.8,36.1z"/>
				<path class="st2" d="M606.8,36.1c0,0,23.2-3.1,24.4-18.8c0,0-2.7-12.7,15.9-12.8c0,0-24.4,2.2-27,13.3
					C620.1,17.9,627.2,27.9,606.8,36.1z"/>
			</g>
			<g>
				<path class="st2" d="M579.5,36.1c0,0,23.2,3.1,24.4,18.8c0,0-2.7,12.7,15.9,12.8c0,0-24.4-2.2-27-13.3
					C592.7,54.3,599.8,44.3,579.5,36.1L579.5,36.1z"/>
				<path class="st2" d="M579.5,36.1c0,0,23.2-3.1,24.4-18.8c0,0-2.7-12.7,15.9-12.8c0,0-24.4,2.2-27,13.3
					C592.7,17.9,599.8,27.9,579.5,36.1L579.5,36.1z"/>
			</g>
			<g>
				<path class="st2" d="M552.1,36.1c0,0,23.2,3.1,24.4,18.8c0,0-2.7,12.7,15.9,12.8c0,0-24.4-2.2-27-13.3
					C565.3,54.3,572.4,44.3,552.1,36.1z"/>
				<path class="st2" d="M552.1,36.1c0,0,23.2-3.1,24.4-18.8c0,0-2.7-12.7,15.9-12.8c0,0-24.4,2.2-27,13.3
					C565.3,17.9,572.4,27.9,552.1,36.1z"/>
			</g>
		</g>
		<g>
			<g>
				<path class="st2" d="M524.7,36.1c0,0,23.2,3.1,24.4,18.8c0,0-2.7,12.7,15.9,12.8c0,0-24.4-2.2-27-13.3
					C537.9,54.3,545,44.3,524.7,36.1L524.7,36.1z"/>
				<path class="st2" d="M524.7,36.1c0,0,23.2-3.1,24.4-18.8c0,0-2.7-12.7,15.9-12.8c0,0-24.4,2.2-27,13.3
					C537.9,17.9,545,27.9,524.7,36.1L524.7,36.1z"/>
			</g>
			<g>
				<path class="st2" d="M497.3,36.1c0,0,23.2,3.1,24.4,18.8c0,0-2.7,12.7,15.9,12.8c0,0-24.4-2.2-27-13.3
					C510.6,54.3,517.7,44.3,497.3,36.1L497.3,36.1z"/>
				<path class="st2" d="M497.3,36.1c0,0,23.2-3.1,24.4-18.8c0,0-2.7-12.7,15.9-12.8c0,0-24.4,2.2-27,13.3
					C510.6,17.9,517.7,27.9,497.3,36.1L497.3,36.1z"/>
			</g>
			<g>
				<path class="st2" d="M469.9,36.1c0,0,23.2,3.1,24.4,18.8c0,0-2.7,12.7,15.9,12.8c0,0-24.4-2.2-27-13.3
					C483.2,54.3,490.3,44.3,469.9,36.1z"/>
				<path class="st2" d="M469.9,36.1c0,0,23.2-3.1,24.4-18.8c0,0-2.7-12.7,15.9-12.8c0,0-24.4,2.2-27,13.3
					C483.2,17.9,490.3,27.9,469.9,36.1z"/>
			</g>
		</g>
		<g>
			<g>
				<path class="st2" d="M442.5,37.6c0,0,23.2,3.1,24.4,18.8c0,0-2.7,12.7,15.9,12.8c0,0-24.4-2.2-27-13.3
					C455.8,55.8,462.9,45.8,442.5,37.6z"/>
				<path class="st2" d="M442.5,37.6c0,0,23.2-3.1,24.4-18.8c0,0-2.7-12.7,15.9-12.8c0,0-24.4,2.2-27,13.3
					C455.8,19.4,462.9,29.4,442.5,37.6z"/>
			</g>
			<g>
				<path class="st2" d="M415.1,37.6c0,0,23.2,3.1,24.4,18.8c0,0-2.7,12.7,15.9,12.8c0,0-24.4-2.2-27-13.3
					C428.4,55.8,435.5,45.8,415.1,37.6L415.1,37.6z"/>
				<path class="st2" d="M415.1,37.6c0,0,23.2-3.1,24.4-18.8c0,0-2.7-12.7,15.9-12.8c0,0-24.4,2.2-27,13.3
					C428.4,19.4,435.5,29.4,415.1,37.6L415.1,37.6z"/>
			</g>
			<g>
				<path class="st2" d="M387.7,37.6c0,0,23.2,3.1,24.4,18.8c0,0-2.7,12.7,15.9,12.8c0,0-24.4-2.2-27-13.3
					C401,55.8,408.1,45.8,387.7,37.6z"/>
				<path class="st2" d="M387.7,37.6c0,0,23.2-3.1,24.4-18.8c0,0-2.7-12.7,15.9-12.8c0,0-24.4,2.2-27,13.3
					C401,19.4,408.1,29.4,387.7,37.6z"/>
			</g>
		</g>
		<g>
			<g>
				<path class="st2" d="M360.4,37.6c0,0,23.2,3.1,24.4,18.8c0,0-2.7,12.7,15.9,12.8c0,0-24.4-2.2-27-13.3
					C373.6,55.8,380.7,45.8,360.4,37.6L360.4,37.6z"/>
				<path class="st2" d="M360.4,37.6c0,0,23.2-3.1,24.4-18.8c0,0-2.7-12.7,15.9-12.8c0,0-24.4,2.2-27,13.3
					C373.6,19.4,380.7,29.4,360.4,37.6L360.4,37.6z"/>
			</g>
			<g>
				<path class="st2" d="M333,37.6c0,0,23.2,3.1,24.4,18.8c0,0-2.7,12.7,15.9,12.8c0,0-24.4-2.2-27-13.3
					C346.2,55.8,353.3,45.8,333,37.6L333,37.6z"/>
				<path class="st2" d="M333,37.6c0,0,23.2-3.1,24.4-18.8c0,0-2.7-12.7,15.9-12.8c0,0-24.4,2.2-27,13.3
					C346.2,19.4,353.3,29.4,333,37.6L333,37.6z"/>
			</g>
			<g>
				<path class="st2" d="M305.6,37.6c0,0,23.2,3.1,24.4,18.8c0,0-2.7,12.7,15.9,12.8c0,0-24.4-2.2-27-13.3
					C318.8,55.8,325.9,45.8,305.6,37.6z"/>
				<path class="st2" d="M305.6,37.6c0,0,23.2-3.1,24.4-18.8c0,0-2.7-12.7,15.9-12.8c0,0-24.4,2.2-27,13.3
					C318.8,19.4,325.9,29.4,305.6,37.6z"/>
			</g>
		</g>
		<g>
			<g>
				<path class="st2" d="M278.2,36.1c0,0,23.2,3.1,24.4,18.8c0,0-2.7,12.7,15.9,12.8c0,0-24.4-2.2-27-13.3
					C291.4,54.3,298.5,44.3,278.2,36.1L278.2,36.1z"/>
				<path class="st2" d="M278.2,36.1c0,0,23.2-3.1,24.4-18.8c0,0-2.7-12.7,15.9-12.8c0,0-24.4,2.2-27,13.3
					C291.4,17.9,298.5,27.9,278.2,36.1L278.2,36.1z"/>
			</g>
			<g>
				<path class="st2" d="M250.8,36.1c0,0,23.2,3.1,24.4,18.8c0,0-2.7,12.7,15.9,12.8c0,0-24.4-2.2-27-13.3
					C264.1,54.3,271.2,44.3,250.8,36.1L250.8,36.1z"/>
				<path class="st2" d="M250.8,36.1c0,0,23.2-3.1,24.4-18.8c0,0-2.7-12.7,15.9-12.8c0,0-24.4,2.2-27,13.3
					C264.1,17.9,271.2,27.9,250.8,36.1L250.8,36.1z"/>
			</g>
			<g>
				<path class="st2" d="M223.4,36.1c0,0,23.2,3.1,24.4,18.8c0,0-2.7,12.7,15.9,12.8c0,0-24.4-2.2-27-13.3
					C236.7,54.3,243.8,44.3,223.4,36.1L223.4,36.1z"/>
				<path class="st2" d="M223.4,36.1c0,0,23.2-3.1,24.4-18.8c0,0-2.7-12.7,15.9-12.8c0,0-24.4,2.2-27,13.3
					C236.7,17.9,243.8,27.9,223.4,36.1L223.4,36.1z"/>
			</g>
		</g>
		<g>
			<g>
				<path class="st2" d="M196,36.1c0,0,23.2,3.1,24.4,18.8c0,0-2.7,12.7,15.9,12.8c0,0-24.4-2.2-27-13.3
					C209.3,54.3,216.4,44.3,196,36.1L196,36.1z"/>
				<path class="st2" d="M196,36.1c0,0,23.2-3.1,24.4-18.8c0,0-2.7-12.7,15.9-12.8c0,0-24.4,2.2-27,13.3
					C209.3,17.9,216.4,27.9,196,36.1L196,36.1z"/>
			</g>
			<g>
				<path class="st2" d="M168.6,36.1c0,0,23.2,3.1,24.4,18.8c0,0-2.7,12.7,15.9,12.8c0,0-24.4-2.2-27-13.3
					C181.9,54.3,189,44.3,168.6,36.1L168.6,36.1z"/>
				<path class="st2" d="M168.6,36.1c0,0,23.2-3.1,24.4-18.8c0,0-2.7-12.7,15.9-12.8c0,0-24.4,2.2-27,13.3
					C181.9,17.9,189,27.9,168.6,36.1L168.6,36.1z"/>
			</g>
			<g>
				<path class="st2" d="M141.2,36.1c0,0,23.2,3.1,24.4,18.8c0,0-2.7,12.7,15.9,12.8c0,0-24.4-2.2-27-13.3
					C154.5,54.3,161.6,44.3,141.2,36.1L141.2,36.1z"/>
				<path class="st2" d="M141.2,36.1c0,0,23.2-3.1,24.4-18.8c0,0-2.7-12.7,15.9-12.8c0,0-24.4,2.2-27,13.3
					C154.5,17.9,161.6,27.9,141.2,36.1L141.2,36.1z"/>
			</g>
		</g>
	</g>
	<g>
		<g>
			<path class="st2" d="M1235.5,38.3c0,0,23.2,3.1,24.4,18.8c0,0-2.7,12.7,15.9,12.8c0,0-24.4-2.2-27-13.3
				C1248.7,56.5,1255.8,46.5,1235.5,38.3z"/>
			<path class="st2" d="M1235.5,38.3c0,0,23.2-3.1,24.4-18.8c0,0-2.7-12.7,15.9-12.8c0,0-24.4,2.2-27,13.3
				C1248.7,20.1,1255.8,30.1,1235.5,38.3z"/>
		</g>
		<g>
			<path class="st2" d="M1208.1,38.3c0,0,23.2,3.1,24.4,18.8c0,0-2.7,12.7,15.9,12.8c0,0-24.4-2.2-27-13.3
				C1221.3,56.5,1228.4,46.5,1208.1,38.3z"/>
			<path class="st2" d="M1208.1,38.3c0,0,23.2-3.1,24.4-18.8c0,0-2.7-12.7,15.9-12.8c0,0-24.4,2.2-27,13.3
				C1221.3,20.1,1228.4,30.1,1208.1,38.3z"/>
		</g>
		<g>
			<path class="st2" d="M1180.7,38.3c0,0,23.2,3.1,24.4,18.8c0,0-2.7,12.7,15.9,12.8c0,0-24.4-2.2-27-13.3
				C1193.9,56.5,1201,46.5,1180.7,38.3z"/>
			<path class="st2" d="M1180.7,38.3c0,0,23.2-3.1,24.4-18.8c0,0-2.7-12.7,15.9-12.8c0,0-24.4,2.2-27,13.3
				C1193.9,20.1,1201,30.1,1180.7,38.3z"/>
		</g>
	</g>
	<g>
		<g>
			<path class="st2" d="M58.6,38.3c0,0,23.2,3.1,24.4,18.8c0,0-2.7,12.7,15.9,12.8c0,0-24.4-2.2-27-13.3
				C71.9,56.5,79,46.5,58.6,38.3L58.6,38.3z"/>
			<path class="st2" d="M58.6,38.3c0,0,23.2-3.1,24.4-18.8c0,0-2.7-12.7,15.9-12.8c0,0-24.4,2.2-27,13.3
				C71.9,20.1,79,30.1,58.6,38.3L58.6,38.3z"/>
		</g>
		<g>
			<path class="st2" d="M31.2,38.3c0,0,23.2,3.1,24.4,18.8c0,0-2.7,12.7,15.9,12.8c0,0-24.4-2.2-27-13.3
				C44.5,56.5,51.6,46.5,31.2,38.3L31.2,38.3z"/>
			<path class="st2" d="M31.2,38.3c0,0,23.2-3.1,24.4-18.8c0,0-2.7-12.7,15.9-12.8c0,0-24.4,2.2-27,13.3
				C44.5,20.1,51.6,30.1,31.2,38.3L31.2,38.3z"/>
		</g>
		<g>
			<path class="st2" d="M3.8,38.3c0,0,23.2,3.1,24.4,18.8c0,0-2.7,12.7,15.9,12.8c0,0-24.4-2.2-27-13.3
				C17.1,56.5,24.2,46.5,3.8,38.3z"/>
			<path class="st2" d="M3.8,38.3c0,0,23.2-3.1,24.4-18.8c0,0-2.7-12.7,15.9-12.8c0,0-24.4,2.2-27,13.3
				C17.1,20.1,24.2,30.1,3.8,38.3z"/>
		</g>
	</g>
	<g>
		<polygon class="st3" points="1126.8,138.9 1085,174.7 1041.5,138.9 1083.3,103.1 		"/>
		<polygon class="st3" points="1126.8,285.6 1085,321.4 1041.5,285.6 1083.3,249.8 		"/>
		<polygon class="st3" points="1126.8,212.2 1085,248.1 1041.5,212.2 1083.3,176.4 		"/>
		<polygon class="st3" points="1126.8,359 1085,394.8 1041.5,359 1083.3,323.1 		"/>
		<polygon class="st3" points="1126.8,505.7 1085,541.5 1041.5,505.7 1083.3,469.9 		"/>
		<polygon class="st3" points="1126.8,432.3 1085,468.2 1041.5,432.3 1083.3,396.5 		"/>
		<polygon class="st3" points="1126.8,579.1 1085,614.9 1041.5,579.1 1083.3,543.2 		"/>
	</g>
	<g>
		<polygon class="st3" points="1038.4,138.9 996.6,174.7 953.1,138.9 994.9,103.1 		"/>
		<polygon class="st3" points="1038.4,285.6 996.6,321.4 953.1,285.6 994.9,249.8 		"/>
		<polygon class="st3" points="1038.4,212.2 996.6,248.1 953.1,212.2 994.9,176.4 		"/>
		<polygon class="st3" points="1038.4,359 996.6,394.8 953.1,359 994.9,323.1 		"/>
		<polygon class="st3" points="1038.4,505.7 996.6,541.5 953.1,505.7 994.9,469.9 		"/>
		<polygon class="st3" points="1038.4,432.3 996.6,468.2 953.1,432.3 994.9,396.5 		"/>
		<polygon class="st3" points="1038.4,579.1 996.6,614.9 953.1,579.1 994.9,543.2 		"/>
	</g>
	<g>
		<polygon class="st4" points="1037.2,153.6 1021.6,138.6 1038.4,124.1 1054,139.1 		"/>
		<polygon class="st4" points="1037.7,227.1 1021.6,212.6 1037.8,197.5 1054,212 		"/>
		<polygon class="st4" points="1037.8,299.5 1022.2,284.5 1039,270 1054.6,284.9 		"/>
		<polygon class="st4" points="1038.4,372.9 1022.2,358.5 1038.5,343.4 1054.6,357.9 		"/>
		<polygon class="st4" points="1037.4,446.7 1021.3,432.2 1037.5,417.2 1053.7,431.6 		"/>
		<polygon class="st4" points="1037.5,519.1 1021.9,504.2 1038.7,489.6 1054.3,504.6 		"/>
		<polygon class="st4" points="1038.1,592.6 1021.9,578.1 1038.2,563 1054.3,577.5 		"/>
	</g>
	<g>
		<g>
			<polygon class="st3" points="950,138.9 908.2,174.7 864.7,138.9 906.5,103.1 			"/>
			<polygon class="st3" points="950,285.6 908.2,321.4 864.7,285.6 906.5,249.8 			"/>
			<polygon class="st3" points="950,212.2 908.2,248.1 864.7,212.2 906.5,176.4 			"/>
			<polygon class="st3" points="950,359 908.2,394.8 864.7,359 906.5,323.1 			"/>
			<polygon class="st3" points="950,505.7 908.2,541.5 864.7,505.7 906.5,469.9 			"/>
			<polygon class="st3" points="950,432.3 908.2,468.2 864.7,432.3 906.5,396.5 			"/>
			<polygon class="st3" points="950,579.1 908.2,614.9 864.7,579.1 906.5,543.2 			"/>
		</g>
		<g>
			<polygon class="st3" points="861.6,138.9 819.8,174.7 776.3,138.9 818.1,103.1 			"/>
			<polygon class="st3" points="861.6,285.6 819.8,321.4 776.3,285.6 818.1,249.8 			"/>
			<polygon class="st3" points="861.6,212.2 819.8,248.1 776.3,212.2 818.1,176.4 			"/>
			<polygon class="st3" points="861.6,359 819.8,394.8 776.3,359 818.1,323.1 			"/>
			<polygon class="st3" points="861.6,505.7 819.8,541.5 776.3,505.7 818.1,469.9 			"/>
			<polygon class="st3" points="861.6,432.3 819.8,468.2 776.3,432.3 818.1,396.5 			"/>
			<polygon class="st3" points="861.6,579.1 819.8,614.9 776.3,579.1 818.1,543.2 			"/>
		</g>
	</g>
	<g>
		<g>
			<polygon class="st3" points="773.2,138.9 731.4,174.7 687.8,138.9 729.7,103.1 			"/>
			<polygon class="st3" points="773.2,285.6 731.4,321.4 687.8,285.6 729.7,249.8 			"/>
			<polygon class="st3" points="773.2,212.2 731.4,248.1 687.8,212.2 729.7,176.4 			"/>
			<polygon class="st3" points="773.2,359 731.4,394.8 687.8,359 729.7,323.1 			"/>
			<polygon class="st3" points="773.2,505.7 731.4,541.5 687.8,505.7 729.7,469.9 			"/>
			<polygon class="st3" points="773.2,432.3 731.4,468.2 687.8,432.3 729.7,396.5 			"/>
			<polygon class="st3" points="773.2,579.1 731.4,614.9 687.8,579.1 729.7,543.2 			"/>
		</g>
		<g>
			<polygon class="st3" points="684.8,138.9 643,174.7 599.4,138.9 641.2,103.1 			"/>
			<polygon class="st3" points="684.8,285.6 643,321.4 599.4,285.6 641.2,249.8 			"/>
			<polygon class="st3" points="684.8,212.2 643,248.1 599.4,212.2 641.2,176.4 			"/>
			<polygon class="st3" points="684.8,359 643,394.8 599.4,359 641.2,323.1 			"/>
			<polygon class="st3" points="684.8,505.7 643,541.5 599.4,505.7 641.2,469.9 			"/>
			<polygon class="st3" points="684.8,432.3 643,468.2 599.4,432.3 641.2,396.5 			"/>
			<polygon class="st3" points="684.8,579.1 643,614.9 599.4,579.1 641.2,543.2 			"/>
		</g>
	</g>
	<g>
		<g>
			<polygon class="st3" points="596.4,138.9 554.6,174.7 511,138.9 552.8,103.1 			"/>
			<polygon class="st3" points="596.4,285.6 554.6,321.4 511,285.6 552.8,249.8 			"/>
			<polygon class="st3" points="596.4,212.2 554.6,248.1 511,212.2 552.8,176.4 			"/>
			<polygon class="st3" points="596.4,359 554.6,394.8 511,359 552.8,323.1 			"/>
			<polygon class="st3" points="596.4,505.7 554.6,541.5 511,505.7 552.8,469.9 			"/>
			<polygon class="st3" points="596.4,432.3 554.6,468.2 511,432.3 552.8,396.5 			"/>
			<polygon class="st3" points="596.4,579.1 554.6,614.9 511,579.1 552.8,543.2 			"/>
		</g>
		<g>
			<polygon class="st3" points="508,138.9 466.2,174.7 422.6,138.9 464.4,103.1 			"/>
			<polygon class="st3" points="508,285.6 466.2,321.4 422.6,285.6 464.4,249.8 			"/>
			<polygon class="st3" points="508,212.2 466.2,248.1 422.6,212.2 464.4,176.4 			"/>
			<polygon class="st3" points="508,359 466.2,394.8 422.6,359 464.4,323.1 			"/>
			<polygon class="st3" points="508,505.7 466.2,541.5 422.6,505.7 464.4,469.9 			"/>
			<polygon class="st3" points="508,432.3 466.2,468.2 422.6,432.3 464.4,396.5 			"/>
			<polygon class="st3" points="508,579.1 466.2,614.9 422.6,579.1 464.4,543.2 			"/>
		</g>
	</g>
	<g>
		<g>
			<polygon class="st3" points="419.5,138.9 377.8,174.7 334.2,138.9 376,103.1 			"/>
			<polygon class="st3" points="419.5,285.6 377.8,321.4 334.2,285.6 376,249.8 			"/>
			<polygon class="st3" points="419.5,212.2 377.8,248.1 334.2,212.2 376,176.4 			"/>
			<polygon class="st3" points="419.5,359 377.8,394.8 334.2,359 376,323.1 			"/>
			<polygon class="st3" points="419.5,505.7 377.8,541.5 334.2,505.7 376,469.9 			"/>
			<polygon class="st3" points="419.5,432.3 377.8,468.2 334.2,432.3 376,396.5 			"/>
			<polygon class="st3" points="419.5,579.1 377.8,614.9 334.2,579.1 376,543.2 			"/>
		</g>
		<g>
			<polygon class="st3" points="331.1,138.9 289.3,174.7 245.8,138.9 287.6,103.1 			"/>
			<polygon class="st3" points="331.1,285.6 289.3,321.4 245.8,285.6 287.6,249.8 			"/>
			<polygon class="st3" points="331.1,212.2 289.3,248.1 245.8,212.2 287.6,176.4 			"/>
			<polygon class="st3" points="331.1,359 289.3,394.8 245.8,359 287.6,323.1 			"/>
			<polygon class="st3" points="331.1,505.7 289.3,541.5 245.8,505.7 287.6,469.9 			"/>
			<polygon class="st3" points="331.1,432.3 289.3,468.2 245.8,432.3 287.6,396.5 			"/>
			<polygon class="st3" points="331.1,579.1 289.3,614.9 245.8,579.1 287.6,543.2 			"/>
		</g>
	</g>
	<g>
		<polygon class="st3" points="242.7,138.9 200.9,174.7 157.4,138.9 199.2,103.1 		"/>
		<polygon class="st3" points="242.7,285.6 200.9,321.4 157.4,285.6 199.2,249.8 		"/>
		<polygon class="st3" points="242.7,212.2 200.9,248.1 157.4,212.2 199.2,176.4 		"/>
		<polygon class="st3" points="242.7,359 200.9,394.8 157.4,359 199.2,323.1 		"/>
		<polygon class="st3" points="242.7,505.7 200.9,541.5 157.4,505.7 199.2,469.9 		"/>
		<polygon class="st3" points="242.7,432.3 200.9,468.2 157.4,432.3 199.2,396.5 		"/>
		<polygon class="st3" points="242.7,579.1 200.9,614.9 157.4,579.1 199.2,543.2 		"/>
	</g>
	<g>
		<polygon class="st4" points="951.3,154.2 935.7,139.3 952.5,124.7 968.1,139.7 		"/>
		<polygon class="st4" points="951.8,227.7 935.7,213.2 951.9,198.2 968.1,212.6 		"/>
		<polygon class="st4" points="951.9,300.1 936.3,285.1 953.1,270.6 968.7,285.6 		"/>
		<polygon class="st4" points="952.5,373.6 936.3,359.1 952.6,344 968.7,358.5 		"/>
		<polygon class="st4" points="951.5,447.4 935.4,432.9 951.6,417.8 967.8,432.3 		"/>
		<polygon class="st4" points="951.6,519.8 936,504.8 952.8,490.2 968.4,505.2 		"/>
		<polygon class="st4" points="952.2,593.2 936,578.8 952.2,563.7 968.4,578.2 		"/>
	</g>
	<g>
		<polygon class="st4" points="863.9,154.2 848.3,139.3 865.1,124.7 880.7,139.7 		"/>
		<polygon class="st4" points="864.5,227.7 848.3,213.2 864.5,198.2 880.7,212.6 		"/>
		<polygon class="st4" points="864.5,300.1 848.9,285.1 865.8,270.6 881.3,285.6 		"/>
		<polygon class="st4" points="865.1,373.6 849,359.1 865.2,344 881.3,358.5 		"/>
		<polygon class="st4" points="864.1,447.4 848,432.9 864.2,417.8 880.4,432.3 		"/>
		<polygon class="st4" points="864.2,519.8 848.6,504.8 865.4,490.2 881,505.2 		"/>
		<polygon class="st4" points="864.8,593.2 848.6,578.8 864.9,563.7 881,578.2 		"/>
	</g>
	<g>
		<polygon class="st4" points="772.9,154.2 757.3,139.3 774.1,124.7 789.7,139.7 		"/>
		<polygon class="st4" points="773.5,227.7 757.3,213.2 773.6,198.2 789.7,212.6 		"/>
		<polygon class="st4" points="773.5,300.1 758,285.1 774.8,270.6 790.4,285.6 		"/>
		<polygon class="st4" points="774.1,373.6 758,359.1 774.2,344 790.4,358.5 		"/>
		<polygon class="st4" points="773.1,447.4 757,432.9 773.2,417.8 789.4,432.3 		"/>
		<polygon class="st4" points="773.2,519.8 757.6,504.8 774.4,490.2 790,505.2 		"/>
		<polygon class="st4" points="773.8,593.2 757.6,578.8 773.9,563.7 790,578.2 		"/>
	</g>
	<g>
		<polygon class="st4" points="686.4,154.2 670.8,139.3 687.7,124.7 703.2,139.7 		"/>
		<polygon class="st4" points="687,227.7 670.8,213.2 687.1,198.2 703.2,212.6 		"/>
		<polygon class="st4" points="687.1,300.1 671.5,285.1 688.3,270.6 703.9,285.6 		"/>
		<polygon class="st4" points="687.6,373.6 671.5,359.1 687.7,344 703.9,358.5 		"/>
		<polygon class="st4" points="686.7,447.4 670.5,432.9 686.8,417.8 702.9,432.3 		"/>
		<polygon class="st4" points="686.8,519.8 671.2,504.8 688,490.2 703.6,505.2 		"/>
		<polygon class="st4" points="687.3,593.2 671.2,578.8 687.4,563.7 703.6,578.2 		"/>
	</g>
	<g>
		<polygon class="st4" points="239.8,154.1 224.2,139.1 241.1,124.6 256.6,139.5 		"/>
		<polygon class="st4" points="240.4,227.5 224.2,213 240.5,198 256.6,212.4 		"/>
		<polygon class="st4" points="240.5,299.9 224.9,285 241.7,270.4 257.3,285.4 		"/>
		<polygon class="st4" points="241,373.4 224.9,358.9 241.1,343.8 257.3,358.3 		"/>
		<polygon class="st4" points="240.1,447.2 223.9,432.7 240.2,417.6 256.3,432.1 		"/>
		<polygon class="st4" points="240.2,519.6 224.6,504.6 241.4,490.1 257,505 		"/>
		<polygon class="st4" points="240.7,593 224.6,578.6 240.8,563.5 257,578 		"/>
	</g>
	<g>
		<polygon class="st4" points="330.4,153.4 314.8,138.5 331.6,123.9 347.2,138.9 		"/>
		<polygon class="st4" points="330.9,226.9 314.8,212.4 331,197.3 347.2,211.8 		"/>
		<polygon class="st4" points="331,299.3 315.4,284.3 332.2,269.8 347.8,284.7 		"/>
		<polygon class="st4" points="331.6,372.7 315.4,358.3 331.7,343.2 347.8,357.7 		"/>
		<polygon class="st4" points="330.6,446.5 314.5,432.1 330.7,417 346.9,431.5 		"/>
		<polygon class="st4" points="330.7,519 315.1,504 331.9,489.4 347.5,504.4 		"/>
		<polygon class="st4" points="331.2,592.4 315.1,577.9 331.4,562.9 347.5,577.3 		"/>
	</g>
	<g>
		<polygon class="st4" points="421.8,153.2 406.2,138.3 423.1,123.7 438.7,138.7 		"/>
		<polygon class="st4" points="422.4,226.7 406.2,212.2 422.5,197.1 438.6,211.6 		"/>
		<polygon class="st4" points="422.5,299.1 406.9,284.1 423.7,269.6 439.3,284.5 		"/>
		<polygon class="st4" points="423,372.5 406.9,358.1 423.1,343 439.3,357.5 		"/>
		<polygon class="st4" points="422.1,446.4 405.9,431.9 422.2,416.8 438.3,431.3 		"/>
		<polygon class="st4" points="422.2,518.8 406.6,503.8 423.4,489.2 439,504.2 		"/>
		<polygon class="st4" points="422.7,592.2 406.6,577.7 422.8,562.7 439,577.1 		"/>
	</g>
	<g>
		<polygon class="st4" points="505.7,153.2 490.1,138.3 506.9,123.7 522.5,138.7 		"/>
		<polygon class="st4" points="506.2,226.7 490.1,212.2 506.3,197.1 522.5,211.6 		"/>
		<polygon class="st4" points="506.3,299.1 490.7,284.1 507.5,269.6 523.1,284.5 		"/>
		<polygon class="st4" points="506.9,372.5 490.7,358.1 507,343 523.1,357.5 		"/>
		<polygon class="st4" points="505.9,446.4 489.8,431.9 506,416.8 522.2,431.3 		"/>
		<polygon class="st4" points="506,518.8 490.4,503.8 507.2,489.2 522.8,504.2 		"/>
		<polygon class="st4" points="506.5,592.2 490.4,577.7 506.6,562.7 522.8,577.1 		"/>
	</g>
	<g>
		<polygon class="st4" points="595.6,154.2 580,139.3 596.8,124.7 612.4,139.7 		"/>
		<polygon class="st4" points="596.2,227.7 580,213.2 596.3,198.2 612.4,212.6 		"/>
		<polygon class="st4" points="596.2,300.1 580.7,285.1 597.5,270.6 613.1,285.6 		"/>
		<polygon class="st4" points="596.8,373.6 580.7,359.1 596.9,344 613.1,358.5 		"/>
		<polygon class="st4" points="595.8,447.4 579.7,432.9 595.9,417.8 612.1,432.3 		"/>
		<polygon class="st4" points="595.9,519.8 580.3,504.8 597.1,490.2 612.7,505.2 		"/>
		<polygon class="st4" points="596.5,593.2 580.3,578.8 596.6,563.7 612.7,578.2 		"/>
	</g>
	<g>
		<polygon class="st4" points="157.7,154.1 142.1,139.1 158.9,124.6 174.5,139.5 		"/>
		<polygon class="st4" points="158.2,227.5 142.1,213 158.3,198 174.5,212.4 		"/>
		<polygon class="st4" points="158.3,299.9 142.7,285 159.5,270.4 175.1,285.4 		"/>
		<polygon class="st4" points="158.9,373.4 142.7,358.9 159,343.8 175.1,358.3 		"/>
		<polygon class="st4" points="157.9,447.2 141.8,432.7 158,417.6 174.2,432.1 		"/>
		<polygon class="st4" points="158,519.6 142.4,504.6 159.2,490.1 174.8,505 		"/>
		<polygon class="st4" points="158.6,593 142.4,578.6 158.6,563.5 174.8,578 		"/>
	</g>
	<g>
		<polygon class="st4" points="1123,153.1 1107.4,138.1 1124.3,123.5 1139.8,138.5 		"/>
		<polygon class="st4" points="1123.6,226.5 1107.4,212 1123.7,197 1139.8,211.4 		"/>
		<polygon class="st4" points="1123.7,298.9 1108.1,284 1124.9,269.4 1140.5,284.4 		"/>
		<polygon class="st4" points="1124.2,372.4 1108.1,357.9 1124.3,342.8 1140.5,357.3 		"/>
		<polygon class="st4" points="1123.3,446.2 1107.1,431.7 1123.4,416.6 1139.5,431.1 		"/>
		<polygon class="st4" points="1123.4,518.6 1107.8,503.6 1124.6,489.1 1140.2,504 		"/>
		<polygon class="st4" points="1123.9,592 1107.8,577.5 1124,562.5 1140.2,577 		"/>
	</g>
</g>
</svg>
