<?xml version="1.0" encoding="UTF-8"?>
<svg id="Layer_1" data-name="Layer 1" xmlns="http://www.w3.org/2000/svg" viewBox="0 0 167.7 108.32">
  <defs>
    <style>
      .cls-1 {
        fill: #098d45;
        stroke: #bc2026;
      }

      .cls-1, .cls-2, .cls-3 {
        stroke-miterlimit: 10;
        stroke-width: 2px;
      }

      .cls-2 {
        fill: #bc2026;
        stroke: #fdfeff;
      }

      .cls-3 {
        fill: #030303;
        stroke: #fff;
      }
    </style>
  </defs>
  <g>
    <path class="cls-2" d="M32.05,8.98c2.39-.63,4.19-.35,5.38.52,1.2.92,1.79,2.48,1.85,4.55.3,11.47-13.93,26.97-27.62,26.85-4.72-.06-10.1-2.82-10.64-11.76C.3,16.7,20.21,2.58,31.75,1.03c2.81-.4,5.8,3.69,5.8,4.61,0,1.21-2.03,1.73-2.93,2.02-.96.35-1.79.81-2.63,1.27l.06.06ZM14.53,22c-.78,0-.78-1.09-.84-1.61-3.35,3.23-6.64,7.84-6.64,12.56,0,2.02.9,3.75,3.17,3.75,3.35,0,8.55-2.42,11.06-4.5,8.01-6.57,12.55-13.6,12.73-17.81.06-1.38-.78-2.82-2.33-2.82-5.26,0-12.5,4.78-15.31,8.88-.36.46-1.14,1.56-1.85,1.56Z"/>
    <path class="cls-2" d="M43.7,29.78c-1.32.92-2.39,1.79-2.39,3.4,0,1.33,1.43,3.11,4.54,3.11,4.54,0,9.75-4.03,13.21-6.63l.72,2.25c-3.65,3.75-10.34,9.45-16.02,9.45-4.6,0-6.82-4.15-6.82-8.41,0-4.84,1.79-6.63,5.68-9.45,2.69-1.96,8.43-5.07,11.78-5.07,1.85,0,2.69.92,2.69,2.65,0,3.17-4.72,7.61-6.34,7.61-1.38,0-1.97-1.44-2.03-2.53l-5.02,3.63Z"/>
    <path class="cls-2" d="M79.34,16.59c-2.81,5.47-3.29,7.61-9.86,7.2-2.03,2.54-5.44,7.26-5.44,10.72,0,1.27.42,2.02,1.79,2.02,1.91,0,4.07-1.73,10.28-5.99l.3,2.54c-3.53,3.11-9.98,9.28-15.07,9.28-2.33,0-3.77-1.56-3.77-3.86,0-1.9.78-4.09,1.55-5.76l-.12-.12-3.05,2.36-.66-2.19c3.59-2.65,6.88-5.59,9.09-9.22-3.65,0-2.51-.23-5.68.23l.66-1.04c3.23-5.07,3.71-5.99,10.1-6.22,1.79-2.36,3.11-5.07,6.58-5.07.78,0,1.91.17,1.91,1.09,0,1.04-1.73,2.94-2.33,3.75l3.71.29Z"/>
    <path class="cls-2" d="M100.44,31.97c-2.69,3.28-5.32,4.67-9.69,4.67-2.51,2.48-5.44,4.32-9.21,4.32-3.11,0-5.98-3-6.22-8.24-.12-4.32,2.09-7.2,5.44-9.68,3.23-2.54,7.53-4.09,11.18-4.26,1.31-.06,3.29.52,3.29,2.07,0,.86-.72,1.21-1.38,1.56,1.79.46,2.15,1.67,2.15,3.4,0,2.54-1.2,4.55-2.33,6.8,2.63.46,4.3-1.73,6.16-3.05l.6,2.42ZM82.21,29.26c-1.32,1.27-2.45,3.52-2.45,5.3,0,1.67,1.14,2.19,2.63,2.19,1.97,0,3.23-1.09,4.6-2.3-.42-.92-.72-1.67-.72-2.65,0-3,2.81-6.63,2.57-6.74-2.03,1.15-4.84,2.54-6.64,4.21Z"/>
    <path class="cls-2" d="M104.44,29.73c-1.08,3.63.36,6.63,2.63,6.34,1.91-.29,2.99-1.84,4.01-3-.48-.75-.84-1.32-.84-2.25,0-3.34,4.78-8.99,8.31-8.99,1.43,0,1.79,1.44,1.79,2.54,0,2.42-1.85,5.07-2.87,7.2,2.45.46,4.42-.81,6.34-2.13l.6,1.9c-2.69,2.71-5.74,3.63-9.57,3.69-2.57,2.59-6.76,6.11-10.7,6.11s-4.42-5.59-4.42-8.36c0-7.26,3.53-13.43,8.25-18.84,4.84-5.59,14.23-12.62,16.74-12.62,1.2,0,1.73,1.04,1.73,2.13,0,5.24-8.85,13.89-12.67,17.46l-9.33,8.82ZM106.6,23.62l.12.12c12.5-11.99,13.81-15.27,14.83-17.34l-.12-.12c-5.92,4.84-11.3,10.66-14.83,17.35Z"/>
    <path class="cls-2" d="M145.82,32.03c-3.65,4.09-10.22,9.51-16.14,9.51-4.36,0-6.4-3.75-6.52-7.55-.24-7.55,8.43-15.27,16.2-15.21,1.91,0,4.31.46,4.31,2.77,0,2.82-2.93,7.09-14.41,10.72l-.12,1.27c-.18,2.19,1.79,2.94,3.71,2.94,4.24,0,9.27-4.21,12.44-6.63l.54,2.19ZM138.4,22.75c0-.4-.3-.75-.72-.63-2.99.75-6.46,3.52-8.07,7.32,5.26-1.73,8.85-5.71,8.79-6.68Z"/>
    <path class="cls-2" d="M149.16,28.11c-2.09,3.17-4.6,4.67-7.17,7.14l-.24-2.53c1.55-1.21,2.81-2.65,3.95-4.21-1.26-.12-1.61-.58-1.61-1.79,0-4.15,6.1-8.3,7.53-8.3.6,0,1.08.46,1.08.98,0,.58-.18,1.1-.42,1.61,5.62-.75,8.91-1.44,9.51-.75.9,1.09,1.32,2.02,1.43,3.05,0,1.79-1.14,2.65-2.51,3.75-1.73,1.44-4.66,4.26-4.66,6.57,0,.92.96,1.61,1.85,1.61,2.57,0,6.34-3.75,8.31-5.19l.42,2.13c-2.27,2.48-9.15,8.87-12.56,8.87-2.51,0-4.06-2.25-4.06-4.44,0-3.92,3.11-6.97,5.5-9.74l-.12-.12-6.22,1.33Z"/>
  </g>
  <g>
    <path class="cls-3" d="M81,66.08c0,14.51-13.64,34.31-32.53,35.59-7.21.53-11.45-6.35-11.45-12.77,0-8.54,5.64-17.91,11.45-24.1,6.9-7.33,18.89-13.22,23.99-13.22,3.21,0,7.06,3.63,7.06,5.29,0,.83-1.88.83-2.43,1.36,3.53,1.06,3.92,4.84,3.92,7.86ZM65.16,83.76c3.45-3.7,10.11-12.7,10.11-17.68,0-1.59-.78-4.46-2.98-4.46-2.04,0-4.08,2.8-4.86,2.8-.63,0-.78-.91-.78-1.36-14.11,7.63-20.3,18.36-20.77,26.15-.08,1.44.23,5.82,2.43,5.82,2.35,0,7.37-2.87,9.17-4.46l7.68-6.8Z"/>
    <path class="cls-3" d="M115.33,61.85c-18.27-.45-19.91,1.59-23.28,3.25-.63.3-1.65,1.06-2.51,1.06s-2.04-.76-2.04-1.66c0-1.66,4.7-7.18,5.96-8.46,2.35-2.34,7.45-4.23,26.65-4.23,1.41,0,3.37.08,4.31,1.36.78,1.13,1.96,4.61,1.96,5.97,0,1.66-2.74,3.55-3.92,4.46-10.03,8.24-18.35,17.91-22.26,32.49.63-.23,1.25-.38,1.88-.38.47,0,.78.23.86.75.16,1.13-8.07,6.42-11.37,6.57-2.98.15-4-2.19-4-4.76,0-6.04,7.29-14.96,11.13-19.65l16.62-16.78Z"/>
  </g>
  <g>
    <path class="cls-1" d="M85.41,70.36c0,14.51-13.64,34.31-32.54,35.59-7.21.53-11.45-6.35-11.45-12.77,0-8.54,5.64-17.91,11.45-24.1,6.9-7.33,18.89-13.22,23.99-13.22,3.21,0,7.06,3.63,7.06,5.29,0,.83-1.88.83-2.43,1.36,3.53,1.06,3.92,4.84,3.92,7.86ZM69.58,88.04c3.45-3.7,10.11-12.7,10.11-17.68,0-1.59-.78-4.46-2.98-4.46-2.04,0-4.08,2.8-4.86,2.8-.63,0-.78-.91-.78-1.36-14.11,7.63-20.3,18.36-20.77,26.15-.08,1.44.24,5.82,2.43,5.82,2.35,0,7.37-2.87,9.17-4.46l7.68-6.8Z"/>
    <path class="cls-1" d="M119.75,66.13c-18.27-.45-19.91,1.59-23.28,3.25-.63.3-1.65,1.06-2.51,1.06s-2.04-.76-2.04-1.66c0-1.66,4.7-7.18,5.96-8.46,2.35-2.34,7.45-4.23,26.66-4.23,1.41,0,3.37.08,4.31,1.36.78,1.13,1.96,4.61,1.96,5.97,0,1.66-2.74,3.55-3.92,4.46-10.04,8.24-18.34,17.91-22.27,32.49.63-.23,1.25-.38,1.88-.38.47,0,.78.23.86.76.16,1.13-8.07,6.42-11.37,6.57-2.98.15-4-2.19-4-4.76,0-6.04,7.29-14.96,11.13-19.65l16.62-16.77Z"/>
  </g>
</svg>